<?xml version="1.0" encoding="UTF-8"?>
<!DOCTYPE svg PUBLIC "-//W3C//DTD SVG 1.1//EN" "http://www.w3.org/Graphics/SVG/1.1/DTD/svg11.dtd">
<!-- Creator: CorelDRAW 2018 (64-Bit) -->
<svg xmlns="http://www.w3.org/2000/svg" xml:space="preserve" width="705.557mm" height="75.4946mm" version="1.1" style="shape-rendering:geometricPrecision; text-rendering:geometricPrecision; image-rendering:optimizeQuality; fill-rule:evenodd; clip-rule:evenodd"
viewBox="0 0 73408.72 7854.73"
 xmlns:xlink="http://www.w3.org/1999/xlink">
 <defs>
  <style type="text/css">
   <![CDATA[
    .fil2 {fill:#EDA496;fill-rule:nonzero}
    .fil1 {fill:#F5B2A6;fill-rule:nonzero}
    .fil0 {fill:white;fill-rule:nonzero}
   ]]>
  </style>
 </defs>
 <g id="Layer_x0020_1">
  <metadata id="CorelCorpID_0Corel-Layer"/>
  <path class="fil0" d="M73408.72 5367.27l0 2487.46 -73408.72 0 0 -2323.01c1297.13,-1844.03 2593.89,-3687.7 3890.67,-5531.72l65627.43 0c1296.54,1788.98 2594.08,3578.3 3890.62,5367.27z"/>
  <path class="fil0" d="M58175.03 4569.68l-10178.59 0 -1600.28 -3119.87 8467.72 0 -23.02 164.08 1155.92 0.21 28.53 39.22c-1112.89,157.88 -1812.96,386.46 -1812.96,640.72 0,325.6 1147.92,609.13 2842.28,755.91l1120.39 1519.73z"/>
  <polygon class="fil1" points="54863.88,1449.81 46396.16,1449.81 45652.52,0 54806.84,0 55024.01,294.93 55006,428.59 54909.91,1116.64 54909.91,1116.64 "/>
  <polygon class="fil1" points="47996.44,4569.68 38134,4569.68 37224.08,1449.81 46396.16,1449.81 "/>
  <polygon class="fil0" points="46396.16,1449.81 37224.08,1449.81 36801.24,0 45652.52,0 "/>
  <path class="fil0" d="M38134 4569.68l-4072.71 0c-498.99,-12.02 -1014.4,-18.33 -1541.23,-18.33 -526.82,0 -1042.24,6.32 -1541.23,18.33l-2818.51 0 -553.14 -3119.87 9616.9 0 909.92 3119.87z"/>
  <polygon class="fil1" points="37224.08,1449.81 27607.18,1449.81 27350.28,0 36801.24,0 "/>
  <path class="fil1" d="M28160.32 4569.68l-10261.1 0 157.52 -2377.98c1148.17,-177.14 1837.01,-403.52 1837.01,-650.12 0,-30.93 -10.8,-61.5 -32.02,-91.78l7745.45 0 553.14 3119.87z"/>
  <path class="fil0" d="M27607.18 1449.81l-7745.45 0c-29.07,-41.38 -77.71,-82.22 -144.61,-122.1 39.98,-11.31 79.51,-23.47 118.5,-36.44l0 0c60.1,-19.81 118.94,-41.38 176.59,-64.8 35.57,-14.36 70.66,-29.53 105.23,-45.24l0 0c37.78,-17.12 74.96,-35.13 111.44,-53.69 22.76,-11.66 45.49,-23.58 67.81,-35.83l0 0c61.95,-33.82 122.04,-69.85 179.84,-107.93 30.33,-19.97 59.95,-40.29 89.07,-61.4l0 0c44.04,-31.58 86.57,-64.56 127.7,-98.63 17.47,-14.51 34.68,-29.28 51.69,-44.28l0 0c73.77,-64.81 142.17,-133.36 204.86,-205.47l0 0c23.67,-27.02 46.5,-54.7 68.41,-82.67 39.68,-50.69 76.87,-102.88 110.94,-156.42l0 0c39.18,-61.35 74.51,-124.71 105.89,-189.51 23.07,-47.64 43.89,-96.13 62.5,-145.41l6052.7 0 256.9 1449.81z"/>
  <path class="fil2" d="M18056.74 2191.7l49.14 -741.89 1755.85 0c21.22,30.28 32.02,60.84 32.02,91.78 0,246.59 -688.84,472.97 -1837.01,650.12z"/>
 </g>
</svg>
