<?xml version="1.0" encoding="UTF-8"?>
<!DOCTYPE svg PUBLIC "-//W3C//DTD SVG 1.1//EN" "http://www.w3.org/Graphics/SVG/1.1/DTD/svg11.dtd">
<!-- Creator: CorelDRAW 2018 (64-Bit) -->
<svg xmlns="http://www.w3.org/2000/svg" xml:space="preserve" width="470.271mm" height="279.663mm" version="1.1" style="shape-rendering:geometricPrecision; text-rendering:geometricPrecision; image-rendering:optimizeQuality; fill-rule:evenodd; clip-rule:evenodd"
viewBox="0 0 56661.85 33695.9"
 xmlns:xlink="http://www.w3.org/1999/xlink">
 <defs>
  <style type="text/css">
   <![CDATA[
    .fil1 {fill:#1F0D09;fill-rule:nonzero}
    .fil0 {fill:#200E0A;fill-rule:nonzero}
    .fil8 {fill:#6C4839;fill-rule:nonzero}
    .fil5 {fill:#747CBA;fill-rule:nonzero}
    .fil14 {fill:#7E8DE8;fill-rule:nonzero}
    .fil4 {fill:#B86548;fill-rule:nonzero}
    .fil9 {fill:#BC4A27;fill-rule:nonzero}
    .fil15 {fill:#E34C25;fill-rule:nonzero}
    .fil7 {fill:#ED7142;fill-rule:nonzero}
    .fil11 {fill:#EED2C2;fill-rule:nonzero}
    .fil6 {fill:#EF9202;fill-rule:nonzero}
    .fil2 {fill:#F19080;fill-rule:nonzero}
    .fil12 {fill:#F2DCCF;fill-rule:nonzero}
    .fil10 {fill:#F6E7DD;fill-rule:nonzero}
    .fil13 {fill:#F8C9C1;fill-rule:nonzero}
    .fil3 {fill:white;fill-rule:nonzero}
   ]]>
  </style>
 </defs>
 <g id="Layer_x0020_1">
  <metadata id="CorelCorpID_0Corel-Layer"/>
  <g id="_2613367926832">
   <path class="fil0" d="M26733.94 6740.19l-1182.9 852.72 2370.51 -16.57 -1187.61 -836.15zm-1382.25 981.66c-27.64,0 -52.27,-17.74 -60.79,-43.99 -8.52,-26.36 0.87,-55.28 23.35,-71.51l1349.1 -972.61 -76.49 -419.61c-5.51,-30.36 11.47,-60.21 40.39,-71.1 46.36,-17.56 202.3,-87.5 254.63,-250.86 46.3,-145.1 -1.74,-311.24 -69.71,-411.61 -43.81,-63.92 -96.94,-103.85 -142.84,-106.92 -64.15,-4.11 -129.22,62.23 -161.91,102.22 -22.54,27.12 -62.47,31.12 -89.7,8.69 -27.24,-22.3 -31.06,-62.58 -8.93,-89.7 85.02,-103.09 177.26,-155.13 269.06,-148.4 87.15,5.74 172.16,63.4 239.73,162.37 104.54,153.62 138.15,358.6 85.82,522.18 -56.1,175.36 -197.61,268.42 -282.22,309.86l70.12 383.96 1366.55 961.72c22.54,15.94 32.34,44.69 23.82,71.16 -8.06,26.48 -32.28,44.51 -60.33,44.74l-2769.26 19.42 -0.4 0z"/>
   <path class="fil1" d="M28742.34 14819.25c-328.16,64.95 -686.86,117.63 -1073.27,148.06 -985.71,77.71 -1849.38,-13.16 -2539.04,-148.06 -100.37,-2288.81 -200.73,-4577.62 -301.1,-6866.36 479.82,-251.33 959.7,-502.65 1439.56,-753.98 453.97,-31.4 907.54,-62.81 1361.51,-94.22 248.6,172.74 497.26,345.55 745.92,518.35 122.04,2398.74 244.43,4797.47 366.42,7196.21z"/>
   <path class="fil0" d="M30247.9 6659.76l-1182.96 852.72 2370.97 -16.69 -1188.01 -836.03zm-1382.31 981.59c-27.59,0 -51.87,-17.74 -60.33,-43.98 -8.98,-26.37 0.81,-55.29 23.35,-71.51l1349.17 -972.55 -76.96 -419.61c-5.57,-30.31 11.47,-60.27 40.39,-71.16 46.7,-17.51 202.76,-87.62 254.98,-250.87 46.35,-145.1 -1.69,-311.3 -70.12,-411.61 -43.34,-63.86 -96.88,-103.84 -142.78,-106.86 -63.81,-3.76 -128.83,62.18 -161.56,102.17 -22.48,27.17 -62.88,31.11 -90.11,8.75 -27.18,-22.42 -31,-62.58 -8.46,-89.76 84.61,-103.09 178.48,-154.67 268.59,-148.4 87.15,5.74 172.57,63.39 239.73,162.37 104.6,153.68 138.55,358.64 85.87,522.23 -55.68,175.24 -197.66,268.31 -281.8,309.8l70.11 384.03 1366.15 961.66c22.94,15.94 32.28,44.74 24.22,71.16 -8.11,26.48 -32.74,44.57 -60.32,44.74l-2769.67 19.41 -0.46 0z"/>
   <path class="fil0" d="M29934.63 6740.19l-1182.5 852.72 2370.51 -16.57 -1188.01 -836.15zm-1381.85 981.66c-27.64,0 -52.33,-17.74 -60.79,-43.99 -8.52,-26.36 0.81,-55.28 23.35,-71.51l1349.16 -972.55 -76.55 -419.67c-5.51,-30.3 11.47,-60.27 39.93,-71.1 46.76,-17.49 202.76,-87.39 255.08,-250.86 46.3,-145.1 -1.74,-311.24 -70.17,-411.61 -43.35,-63.92 -96.49,-103.85 -142.38,-106.92 -64.15,-4.06 -129.22,62.23 -161.97,102.22 -22.48,27.12 -62.46,31.12 -89.64,8.69 -27.23,-22.3 -31.06,-62.58 -8.93,-89.7 85.02,-103.15 177.67,-154.9 268.59,-148.4 87.57,5.74 172.63,63.46 239.79,162.37 104.55,153.68 138.56,358.66 86.29,522.18 -56.16,175.41 -197.67,268.48 -282.28,309.91l70.12 383.91 1366.55 961.72c22.54,15.94 32.34,44.69 23.82,71.16 -8.06,26.48 -32.74,44.51 -60.33,44.74l-2769.25 19.42 -0.41 0z"/>
   <path class="fil0" d="M25985.88 6659.76l-1182.96 852.72 2370.51 -16.69 -1187.55 -836.03zm-1382.37 981.59c-27.53,0 -52.04,-17.74 -60.56,-43.98 -8.69,-26.37 0.76,-55.29 23.29,-71.51l1349.05 -972.55 -76.49 -419.61c-5.57,-30.31 11.47,-60.27 40.39,-71.16 46.3,-17.51 202.3,-87.62 254.57,-250.87 46.76,-145.1 -1.67,-311.24 -69.71,-411.55 -43.75,-63.92 -96.88,-103.9 -142.78,-106.92 -64.21,-3.76 -129.24,62.18 -161.97,102.17 -22.54,27.17 -62.47,31.11 -89.7,8.75 -27.18,-22.42 -31,-62.58 -8.93,-89.76 85.08,-103.09 178.54,-154.67 269.06,-148.4 87.15,5.8 172.16,63.45 239.73,162.43 104.6,153.62 138.15,358.58 85.88,522.17 -56.1,175.24 -197.67,268.31 -282.22,309.8l70.12 384.03 1366.55 961.66c22.54,15.94 32.28,44.74 24.22,71.16 -8.52,26.48 -32.74,44.57 -60.38,44.74l-2769.67 19.41 -0.46 0z"/>
   <path class="fil2" d="M27767.29 14435.57c-328.16,64.95 -687.33,117.63 -1073.27,148.06 -985.71,77.71 -1849.56,-13.21 -2539.15,-148.06 -100.32,-2288.81 -200.68,-4577.62 -300.99,-6866.41 479.88,-251.33 959.8,-502.59 1439.56,-753.92 453.97,-31.47 907.48,-62.88 1361.45,-94.29 370.64,381.49 741.75,762.96 1112.39,1144.38 0,2190.12 0,4380.19 0,6570.24z"/>
   <path class="fil3" d="M32033.95 14569.95l-3690.77 0c147.07,-2540.07 294.62,-5080.03 441.62,-7620.1 406.8,124.48 995.1,253.88 1708.33,242.35 595.08,-9.63 1094.08,-114.39 1462.64,-222.18 25.89,2533.29 52.27,5066.64 78.17,7599.93z"/>
   <path class="fil0" d="M33166.33 17336.49c-34.03,0 -62.47,-26.71 -63.81,-60.97 -7.65,-175.12 -14.42,-354 -19.53,-531.62 -7.24,-233.77 -12.34,-471.65 -14.89,-707.09 -0.4,-35.23 27.65,-64.1 62.94,-64.5 35.69,0 64.2,28.05 64.61,62.99 2.55,234.63 7.65,471.76 14.43,704.77 5.55,177.03 11.93,355.28 19.99,529.83 1.28,35.17 -25.9,65.02 -61.2,66.52l-2.54 0.06z"/>
   <path class="fil0" d="M32513.42 18009.03c-34.42,0 -62.94,-27.35 -63.75,-61.94 -7.65,-270.16 -14.48,-546.04 -19.53,-819.97 -7.24,-362.81 -11.93,-729.75 -14.89,-1090.59 -0.46,-35.18 28.05,-63.92 63.34,-64.21 35.23,0 63.75,28.22 64.15,63.28 2.55,360.32 7.65,726.73 14.89,1089.03 5.11,273.58 11.88,549.05 19.53,818.87 0.87,35.17 -26.77,64.5 -62,65.53l-1.74 0z"/>
   <path class="fil0" d="M31915.38 17336.49c-34.01,0 -62.06,-26.71 -63.74,-60.97 -7.65,-175.12 -14.49,-354 -19.59,-531.62 -7.18,-232.96 -11.88,-470.84 -14.83,-707.09 -0.47,-35.18 27.58,-64.1 62.87,-64.5 35.7,0 64.21,28.05 64.62,62.99 3.01,235.44 7.65,472.56 14.89,704.77 5.1,177.03 11.88,355.28 19.53,529.83 1.28,35.17 -25.9,65.02 -61.2,66.52l-2.55 0.06z"/>
   <path class="fil0" d="M31262.47 18009.03c-34.41,0 -62.87,-27.35 -63.74,-61.94 -7.65,-274.68 -14.43,-550.57 -19.53,-820.03 -7.24,-362.75 -11.94,-729.69 -14.89,-1090.53 0,-35.18 28.05,-63.92 63.34,-64.21 35.7,0 64.21,28.22 64.21,63.28 2.95,360.32 7.65,726.73 14.83,1089.03 5.1,269.06 11.94,544.53 19.59,818.87 0.81,35.17 -26.77,64.5 -62.06,65.53l-1.75 0z"/>
   <path class="fil0" d="M30641.5 17336.49c-34.03,0 -62.47,-26.71 -63.81,-60.97 -8.05,-178.07 -14.42,-356.91 -19.53,-531.62 -7.24,-235.22 -12.34,-473.16 -14.89,-707.09 -0.4,-35.23 27.64,-64.1 62.94,-64.5 35.29,-1.28 64.2,27.81 64.61,62.99 2.55,233.12 7.65,470.31 14.43,704.77 5.55,174.14 11.93,352.39 19.99,529.83 1.28,35.17 -25.9,65.02 -61.2,66.52l-2.54 0.06z"/>
   <path class="fil0" d="M29988.59 18009.03c-34.42,0 -62.88,-27.35 -63.75,-61.94 -7.65,-270.16 -14.48,-546.04 -19.53,-819.97 -7.24,-360.5 -11.93,-727.37 -14.89,-1090.59 0,-35.18 28.05,-63.92 63.34,-64.21 35.29,0 64.15,28.22 64.15,63.28 3.01,362.64 7.65,729.05 14.89,1089.03 5.1,273.58 11.88,549.05 19.53,818.87 0.87,35.17 -26.77,64.5 -62,65.53l-1.74 0z"/>
   <path class="fil0" d="M29390.55 17336.49c-34.01,0 -62.06,-26.71 -63.74,-60.97 -7.65,-178.07 -14.49,-356.91 -19.59,-531.62 -7.18,-235.22 -11.88,-473.16 -14.83,-707.09 -0.47,-35.23 28.05,-64.1 62.87,-64.5 33.56,-1.28 64.21,27.81 64.62,62.99 2.55,233.12 7.65,470.31 14.89,704.77 5.1,174.14 11.47,352.39 19.53,529.83 1.28,35.17 -25.9,65.02 -61.2,66.52l-2.55 0.06z"/>
   <path class="fil0" d="M28737.64 18009.03c-34.42,0 -62.87,-27.35 -63.74,-61.94 -7.65,-270.16 -14.02,-546.04 -19.53,-819.97 -6.83,-359.28 -11.94,-726.16 -14.89,-1090.59 0,-35.18 28.05,-63.92 63.34,-64.21 35.7,0 64.21,28.22 64.21,63.28 2.95,363.86 7.65,730.26 14.83,1089.03 5.1,273.58 11.94,549.05 19.59,818.87 0.81,35.17 -26.77,64.5 -62.06,65.53l-1.75 0z"/>
   <path class="fil0" d="M27576.81 17336.49c-33.95,0 -62,-26.71 -63.75,-60.97 -7.64,-178.07 -14.42,-356.91 -19.52,-531.62 -7.25,-235.22 -11.94,-473.16 -14.89,-707.09 -0.41,-35.23 28.04,-64.1 63.33,-64.5 35.29,0 63.75,28.05 64.21,62.99 2.96,233.12 7.65,470.31 14.84,704.77 5.16,174.14 11.93,352.39 19.58,529.83 1.69,35.17 -25.56,65.02 -60.79,66.52l-3.01 0.06z"/>
   <path class="fil0" d="M26923.96 18009.03c-34.42,0 -62.47,-27.35 -63.75,-61.94 -7.64,-270.16 -14.02,-546.04 -19.58,-819.97 -6.78,-359.28 -11.88,-726.16 -14.89,-1090.59 0,-35.18 28.1,-63.92 63.34,-64.21 36.16,-1.57 64.2,28.05 64.2,63.28 2.96,363.86 8.06,730.26 14.9,1089.03 5.49,273.58 11.87,549.05 19.52,818.87 1.28,35.17 -26.77,64.5 -61.59,65.53l-2.14 0z"/>
   <path class="fil0" d="M26325.93 17336.49c-34.03,0 -62.06,-26.71 -63.81,-60.97 -7.65,-178.07 -14.02,-356.91 -19.53,-531.62 -6.77,-233.07 -11.88,-470.95 -14.42,-707.09 -0.47,-35.23 27.58,-64.1 62.87,-64.5 34.01,-1.28 64.21,27.81 64.62,62.99 2.54,235.38 7.65,472.46 14.48,704.71 5.05,174.2 11.88,352.45 19.53,529.89 1.67,35.17 -25.5,65.02 -60.79,66.52l-2.95 0.06z"/>
   <path class="fil0" d="M25673.02 18009.03c-34.03,0 -62.47,-27.35 -63.34,-61.94 -8.06,-270.16 -14.43,-546.04 -19.99,-819.97 -6.78,-359.28 -11.88,-726.16 -14.43,-1090.59 -0.41,-35.18 28.05,-63.92 63.34,-64.21 34.01,-1.57 63.74,28.05 64.15,63.28 2.6,363.86 7.71,730.26 14.48,1089.03 5.51,273.58 11.88,549.05 19.53,818.87 1.28,35.17 -26.3,64.5 -61.59,65.53l-2.14 0z"/>
   <path class="fil0" d="M24905.02 17336.49c-33.91,0 -62.12,-26.71 -63.63,-60.97 -7.76,-175.12 -14.31,-354 -19.64,-531.62 -7.07,-234.53 -12.06,-472.41 -14.78,-707.09 -0.46,-35.23 27.82,-64.1 62.99,-64.5 35.64,0 64.1,28.05 64.5,62.99 2.78,233.94 7.65,471.01 14.72,704.77 5.33,177.03 11.94,355.28 19.58,529.83 1.57,35.17 -25.66,65.02 -60.89,66.52l-2.84 0.06z"/>
   <path class="fil0" d="M24252.23 18009.03c-34.36,0 -62.7,-27.35 -63.69,-61.94 -7.76,-272.48 -14.37,-548.42 -19.64,-819.97 -7.07,-361.66 -12,-728.53 -14.72,-1090.59 -0.29,-35.18 28.05,-63.92 63.28,-64.21 35.46,0 63.98,28.22 64.21,63.28 2.72,361.49 7.71,727.89 14.72,1089.03 5.27,271.21 11.87,546.74 19.64,818.87 0.99,35.17 -26.71,64.5 -61.94,65.53l-1.86 0z"/>
   <path class="fil0" d="M23389.83 17513.64c-34.07,0 -62.35,-26.95 -63.68,-61.26 -7.77,-201.95 -14.37,-406.39 -19.65,-607.6 -7.07,-268.82 -12.05,-540.72 -14.77,-808.1 -0.35,-35.23 27.87,-64.03 63.1,-64.38 35.58,0 64.1,28.1 64.45,63.1 2.72,266.69 7.64,537.88 14.71,806.01 5.28,200.73 11.82,404.6 19.59,606.03 1.33,35.17 -26.07,64.79 -61.26,66.18l-2.49 0z"/>
   <path class="fil0" d="M22874.43 18009.03c-34.3,0 -62.7,-27.35 -63.62,-61.94 -7.83,-272.42 -14.37,-548.3 -19.65,-819.97 -7.07,-361.08 -12.05,-728.01 -14.83,-1090.59 -0.23,-35.18 28.1,-63.92 63.34,-64.21 35.87,0.87 63.97,28.05 64.21,63.28 2.77,362.07 7.7,728.42 14.77,1089.03 5.28,271.31 11.82,546.8 19.59,818.87 0.98,35.17 -26.72,64.5 -61.95,65.53l-1.86 0z"/>
   <path class="fil4" d="M32084.14 29968.4c10.6,218.07 156.8,394.05 333.67,427.2 220.61,41.5 466.25,-144.52 490.48,-427.2 0,-4144.61 0,-8289.18 0,-12433.77 -15.71,-22.95 -150.44,-211 -392.32,-220.67 -265.64,-10.66 -420.36,203.74 -431.83,220.67 0,4144.6 0,8289.17 0,12433.77z"/>
   <path class="fil4" d="M23720.31 30016.96c11.07,218.06 157.04,394.05 333.79,427.25 220.9,41.5 466.43,-144.57 490.83,-427.25 0,-4144.62 0,-8289.12 0,-12433.8 -15.94,-22.94 -150.85,-210.99 -392.67,-220.66 -265.69,-10.6 -420.19,203.8 -431.95,220.66 0,4144.68 0,8289.18 0,12433.8z"/>
   <path class="fil0" d="M22405.05 17966.56c-34.42,0 -62.7,-27.35 -63.74,-61.95 -7.77,-272.41 -14.37,-548.29 -19.65,-819.95 -7.01,-362.76 -11.99,-729.7 -14.71,-1090.55 -0.29,-35.23 28.05,-63.98 63.28,-64.27 35.35,-0.58 63.92,28.05 64.21,63.28 2.72,360.39 7.7,726.75 14.71,1089.04 5.34,271.31 11.88,546.79 19.65,818.86 1.04,35.18 -26.77,64.5 -61.95,65.55l-1.8 0z"/>
   <path class="fil4" d="M21873.14 29974.48c11,218.07 156.98,394.05 333.73,427.26 220.9,41.5 466.43,-144.59 490.82,-427.26 0,-4144.61 0,-8289.12 0,-12433.73 -15.93,-22.94 -150.84,-210.99 -392.66,-220.72 -265.7,-10.6 -420.19,203.8 -431.89,220.72 0,4144.61 0,8289.12 0,12433.73z"/>
   <path class="fil1" d="M28281.58 29735.16c9.34,218.06 130.91,394.12 278.39,427.26 184.11,41.48 388.55,-144.52 408.95,-427.26 0,-4144.5 0,-8289.12 0,-12433.73 -13.21,-22.95 -125.8,-210.99 -327.29,-220.67 -221.48,-10.66 -350.25,203.76 -360.04,220.67 0,4144.61 0,8289.23 0,12433.73z"/>
   <path class="fil5" d="M31755.1 28951.11l166.66 0c89.25,0 162.38,-72.9 162.38,-162.08l0 -11367.47c0,-89.18 -73.14,-162.08 -162.38,-162.08l-166.66 0c-89.25,0 -161.91,72.9 -161.91,162.08l0 11367.47c0,89.18 72.67,162.08 161.91,162.08z"/>
   <path class="fil5" d="M25592.7 30202.33l185.31 0c99.45,0 180.64,-81.18 180.64,-180.39l0 -12887.17c0,-99.21 -81.18,-180.39 -180.64,-180.39l-185.31 0c-99.04,0 -180.23,81.18 -180.23,180.39l0 12887.17c0,99.21 81.18,180.39 180.23,180.39z"/>
   <path class="fil6" d="M30978.12 22638.79c0,3115.33 166.66,5640.75 372.79,5640.75 206.12,0 373.19,-2525.42 373.19,-5640.75 0,-3115.27 -167.07,-5640.67 -373.19,-5640.67 -206.13,0 -372.79,2525.4 -372.79,5640.67z"/>
   <path class="fil0" d="M33618.56 18079.79c-34.42,0 -62.87,-27.36 -63.74,-61.95 -8.06,-274.74 -14.49,-550.56 -19.53,-819.97 -7.24,-362.81 -12.35,-729.75 -14.89,-1090.59 -0.41,-35.17 28.05,-63.98 63.34,-64.21 35.29,0 63.74,28.22 64.15,63.28 2.54,360.33 7.65,726.73 14.89,1089.04 5.1,268.99 11.47,544.47 19.53,818.8 0.87,35.23 -26.77,64.56 -62.06,65.55l-1.69 0.06z"/>
   <path class="fil6" d="M33333.8 22709.55c0,3115.27 167.01,5640.74 373.19,5640.74 205.72,0 372.79,-2525.47 372.79,-5640.74 0,-3115.27 -167.07,-5640.68 -372.79,-5640.68 -206.18,0 -373.19,2525.41 -373.19,5640.68z"/>
   <path class="fil0" d="M34148.62 18136.4c-34.42,0 -62.93,-27.35 -63.75,-61.94 -7.65,-270.22 -14.48,-546.1 -19.58,-819.97 -7.25,-362.81 -12.29,-729.75 -14.89,-1090.59 -0.41,-35.17 28.1,-63.98 63.33,-64.21 36.57,-1.57 63.81,28.05 64.21,63.28 2.55,360.33 7.65,726.73 14.89,1089.04 5.11,273.51 11.88,548.99 19.53,818.8 0.87,35.23 -26.77,64.56 -62.06,65.55l-1.67 0.05z"/>
   <path class="fil6" d="M33863.86 22766.17c0,3115.27 167.01,5640.74 373.19,5640.74 206.13,0 373.19,-2525.47 373.19,-5640.74 0,-3115.28 -167.06,-5640.68 -373.19,-5640.68 -206.18,0 -373.19,2525.4 -373.19,5640.68z"/>
   <path class="fil6" d="M26514.6 23101.47c0,3262.98 167.07,5908.17 373.2,5908.17 206.18,0 372.78,-2645.2 372.78,-5908.17 0,-3263.11 -166.6,-5908.28 -372.78,-5908.28 -206.13,0 -373.2,2645.17 -373.2,5908.28z"/>
   <path class="fil3" d="M29531.65 23741.33c0,3427.85 180.23,6206.73 402.51,6206.73 222.36,0 402.57,-2778.88 402.57,-6206.73 0,-3427.84 -180.21,-6206.71 -402.57,-6206.71 -222.29,0 -402.51,2778.87 -402.51,6206.71z"/>
   <path class="fil3" d="M32751.47 23466.13c0,3427.91 180.23,6206.73 402.51,6206.73 222.29,0 402.51,-2778.82 402.51,-6206.73 0,-3427.79 -180.23,-6206.66 -402.51,-6206.66 -222.29,0 -402.51,2778.87 -402.51,6206.66z"/>
   <path class="fil3" d="M25958.65 23466.13c0,3427.91 180.21,6206.73 402.51,6206.73 221.88,0 402.1,-2778.82 402.1,-6206.73 0,-3427.79 -180.23,-6206.66 -402.1,-6206.66 -222.3,0 -402.51,2778.87 -402.51,6206.66z"/>
   <path class="fil3" d="M27194.7 23466.13c0,3427.91 180.23,6206.73 402.57,6206.73 222.29,0 402.51,-2778.82 402.51,-6206.73 0,-3427.79 -180.23,-6206.66 -402.51,-6206.66 -222.35,0 -402.57,2778.87 -402.57,6206.66z"/>
   <path class="fil7" d="M30173.09 23288.69c0,3427.91 180.23,6206.73 402.51,6206.73 222.29,0 402.51,-2778.82 402.51,-6206.73 0,-3427.85 -180.23,-6206.66 -402.51,-6206.66 -222.29,0 -402.51,2778.81 -402.51,6206.66z"/>
   <path class="fil1" d="M22987.38 23520.26c0,3427.85 180.23,6206.73 402.51,6206.73 222.24,0 402.45,-2778.88 402.45,-6206.73 0,-3427.91 -180.21,-6206.66 -402.45,-6206.66 -222.29,0 -402.51,2778.75 -402.51,6206.66z"/>
   <path class="fil2" d="M22437.67 23466.13c0,3427.91 180.17,6206.73 402.45,6206.73 222.29,0 402.45,-2778.82 402.45,-6206.73 0,-3427.79 -180.17,-6206.66 -402.45,-6206.66 -222.29,0 -402.45,2778.87 -402.45,6206.66z"/>
   <path class="fil2" d="M24397.68 23520.26c0,3427.85 227.16,6206.73 507.4,6206.73 280.41,0 507.4,-2778.88 507.4,-6206.73 0,-3427.91 -226.99,-6206.66 -507.4,-6206.66 -280.24,0 -507.4,2778.75 -507.4,6206.66z"/>
   <path class="fil2" d="M28670.95 23290.38c0,3427.9 226.99,6206.72 507.51,6206.72 192.56,0 -88.43,-2322.12 507.06,-6206.72 242.28,-1578.88 -18.25,-3201.39 107.15,-4794.75 19.12,-241.53 85.81,-1007.78 -320.11,-1303.72 -29.27,-21.56 -176.35,-131.84 -294.1,-108.25 -169.61,33.95 -507.51,337.55 -507.51,6206.72z"/>
   <path class="fil0" d="M11342.49 16452.01l-934.83 673.95 1873.72 -13.1 -938.89 -660.85zm-1134.23 802.88c-27.58,0 -51.98,-17.74 -60.61,-43.98 -8.58,-26.37 0.81,-55.29 23.29,-71.51l1101.2 -793.85 -61.53 -337.21c-5.51,-30.24 11.41,-60.21 40.27,-71.1 37.04,-13.9 160.98,-69.49 202.25,-198.65 36.91,-115.38 -1.51,-247.73 -55.98,-327.76 -33.74,-49.6 -74.23,-80.55 -108.37,-82.75 -47.81,-3.36 -97.64,48.57 -123.26,79.68 -22.42,27.18 -62.53,31.12 -89.76,8.7 -27.18,-22.31 -31.06,-62.53 -8.69,-89.7 72.03,-87.57 151.36,-131.43 230.11,-125.92 75.16,4.98 148.12,54 205.43,138.26 87.68,128.87 115.96,300.93 71.97,438.38 -45.6,142.56 -157.91,220.44 -229.59,257.18l55.11 301.97 1117.37 786.42c22.66,15.94 32.46,44.74 24.17,71.16 -8.29,26.43 -32.69,44.57 -60.45,44.74l-2272.4 15.94 -0.53 0z"/>
   <path class="fil0" d="M12424.17 16452.01l-934.83 673.95 1873.72 -13.1 -938.89 -660.85zm-1134.23 802.88c-27.53,0 -52.04,-17.74 -60.62,-43.98 -8.58,-26.37 0.82,-55.29 23.35,-71.51l1101.15 -793.85 -61.55 -337.21c-5.51,-30.24 11.42,-60.21 40.22,-71.1 37.03,-13.9 161.04,-69.53 202.3,-198.65 36.92,-115.38 -1.51,-247.73 -55.98,-327.76 -33.72,-49.6 -74.23,-80.55 -108.37,-82.75 -47.63,-3.12 -97.64,48.62 -123.31,79.74 -22.37,27.12 -62.59,31.06 -89.7,8.64 -27.24,-22.37 -31.06,-62.53 -8.7,-89.76 72.03,-87.51 151.19,-131.32 230.12,-125.86 75.16,4.98 148.12,54 205.43,138.26 87.67,128.87 115.95,300.93 71.97,438.38 -45.6,142.56 -157.97,220.44 -229.59,257.12l55.11 302.03 1117.37 786.42c22.65,15.94 32.39,44.74 24.16,71.16 -8.28,26.43 -32.68,44.57 -60.44,44.74l-2272.47 15.94 -0.46 0z"/>
   <path class="fil0" d="M14163.91 16452.01l-934.83 673.95 1873.72 -13.1 -938.89 -660.85zm-1134.22 802.88c-27.53,0 -52.04,-17.74 -60.56,-43.98 -8.64,-26.37 0.81,-55.29 23.29,-71.51l1101.15 -793.85 -61.55 -337.21c-5.51,-30.24 11.41,-60.21 40.28,-71.1 36.97,-13.9 160.97,-69.53 202.24,-198.65 36.91,-115.38 -1.51,-247.79 -55.98,-327.76 -33.72,-49.6 -74.23,-80.55 -108.37,-82.75 -47.11,-2.89 -97.64,48.62 -123.26,79.68 -22.42,27.18 -62.52,31.12 -89.76,8.7 -27.17,-22.31 -31.06,-62.53 -8.75,-89.7 72.15,-87.57 151.6,-131.55 230.17,-125.92 75.11,4.98 148.07,54 205.37,138.26 87.74,128.87 116.02,300.93 72.04,438.38 -45.62,142.56 -157.91,220.44 -229.54,257.12l55.05 302.03 1117.37 786.42c22.66,15.94 32.46,44.74 24.17,71.16 -8.29,26.43 -32.69,44.57 -60.44,44.74l-2272.47 15.94 -0.46 0z"/>
   <path class="fil0" d="M15300.12 16452.01l-934.72 673.95 1873.67 -13.1 -938.95 -660.85zm-1134.17 802.88c-27.53,0 -52.04,-17.74 -60.62,-43.98 -8.58,-26.37 0.81,-55.29 23.35,-71.51l1101.15 -793.85 -61.55 -337.21c-5.57,-30.24 11.42,-60.21 40.22,-71.1 37.03,-13.9 160.98,-69.49 202.3,-198.65 36.92,-115.38 -1.51,-247.73 -55.98,-327.76 -33.78,-49.6 -74.23,-80.55 -108.37,-82.75 -48.04,-3.36 -97.64,48.57 -123.26,79.68 -22.42,27.18 -62.58,31.12 -89.76,8.7 -27.17,-22.31 -31.06,-62.53 -8.69,-89.7 72.03,-87.57 151.31,-131.43 230.12,-125.92 75.15,4.98 148.06,54 205.36,138.26 87.74,128.87 116.02,300.93 72.04,438.38 -45.6,142.56 -157.91,220.44 -229.54,257.18l55.05 301.97 1117.38 786.42c22.65,15.94 32.39,44.74 24.1,71.16 -8.28,26.43 -32.68,44.57 -60.38,44.74l-2272.47 15.94 -0.46 0z"/>
   <path class="fil0" d="M16558.13 16452.01l-934.83 673.95 1873.66 -13.1 -938.83 -660.85zm-1134.3 802.88c-27.52,0 -52.04,-17.74 -60.56,-43.98 -8.63,-26.37 0.81,-55.29 23.3,-71.51l1101.14 -793.85 -61.55 -337.21c-5.45,-30.24 11.48,-60.21 40.28,-71.1 36.98,-13.9 160.98,-69.53 202.3,-198.65 36.86,-115.38 -1.57,-247.73 -55.98,-327.76 -33.72,-49.6 -74.29,-80.55 -108.41,-82.75 -47.81,-3.12 -97.6,48.62 -123.26,79.74 -22.43,27.12 -62.59,31.06 -89.76,8.64 -27.18,-22.37 -31.06,-62.53 -8.64,-89.76 72.03,-87.51 151.48,-131.32 230.12,-125.86 75.1,4.98 148.06,54 205.37,138.26 87.73,128.87 116.01,300.93 71.97,438.38 -45.54,142.56 -157.85,220.44 -229.53,257.12l55.05 302.03 1117.43 786.42c22.65,15.94 32.39,44.74 24.1,71.16 -8.28,26.43 -32.68,44.57 -60.38,44.74l-2272.52 15.94 -0.47 0z"/>
   <path class="fil0" d="M17921.19 16452.01l-934.89 673.95 1873.78 -13.1 -938.89 -660.85zm-1134.22 802.88c-27.59,0 -52.04,-17.74 -60.62,-43.98 -8.64,-26.37 0.81,-55.29 23.29,-71.51l1101.15 -793.85 -61.55 -337.21c-5.51,-30.24 11.42,-60.21 40.28,-71.1 37.03,-13.9 160.98,-69.49 202.24,-198.65 36.97,-115.38 -1.51,-247.73 -55.92,-327.76 -33.78,-49.6 -74.29,-80.55 -108.43,-82.75 -47.52,-3.36 -97.64,48.57 -123.26,79.68 -22.42,27.18 -62.52,31.12 -89.7,8.7 -27.23,-22.31 -31.12,-62.53 -8.75,-89.7 72.09,-87.57 151.42,-131.43 230.12,-125.92 75.16,4.98 148.12,54 205.42,138.26 87.68,128.87 116.02,300.93 71.98,438.38 -45.6,142.56 -157.85,220.44 -229.54,257.18l55.05 301.97 1117.38 786.42c22.71,15.94 32.45,44.74 24.16,71.16 -8.29,26.43 -32.68,44.57 -60.44,44.74l-2272.41 15.94 -0.46 0z"/>
   <path class="fil0" d="M18393.02 16452.01l-934.84 673.95 1873.73 -13.1 -938.89 -660.85zm-1134.23 802.88c-27.59,0 -52.04,-17.74 -60.62,-43.98 -8.58,-26.37 0.81,-55.29 23.29,-71.51l1101.21 -793.85 -61.48 -337.21c-5.57,-30.24 11.36,-60.21 40.16,-71.1 37.09,-13.9 161.04,-69.53 202.3,-198.65 36.97,-115.38 -1.45,-247.73 -55.92,-327.76 -33.72,-49.6 -74.23,-80.55 -108.37,-82.75 -48.04,-3.36 -97.7,48.57 -123.26,79.68 -22.42,27.18 -62.52,31.12 -89.76,8.7 -27.18,-22.31 -31.12,-62.53 -8.75,-89.7 72.09,-87.57 151.42,-131.43 230.12,-125.92 75.15,4.98 148.12,54 205.42,138.26 87.68,128.87 115.96,300.93 71.98,438.38 -45.6,142.56 -157.91,220.44 -229.54,257.12l55.11 302.03 1117.32 786.42c22.65,15.94 32.45,44.74 24.16,71.16 -8.29,26.43 -32.68,44.57 -60.44,44.74l-2272.47 15.94 -0.46 0z"/>
   <path class="fil4" d="M20475.41 23271.55c21.15,773.84 -269.7,1491.37 -759.19,1819.35 -683.62,458.09 -1690.02,112.84 -2185.77,-933.78 148.34,-1550.94 296.7,-3101.94 445.05,-4652.88 8.69,885.45 17.39,1770.96 26.13,2656.49 -318.49,-85.88 -636.97,-171.77 -955.46,-257.59 141.79,-1387.23 283.59,-2774.59 425.39,-4161.83 277,-244.18 554.05,-488.32 831.11,-732.52 57.82,51.57 279.13,236.08 587.08,202.18 240.77,-26.48 404.19,-172.16 466.54,-234.4 329.44,236.14 658.83,472.28 988.26,708.41 200.62,1481.18 401.3,2962.35 602.03,4443.53 -209.43,107.32 -418.85,214.64 -628.28,322.02 -135.19,-1357.8 -270.45,-2715.54 -405.69,-4073.28 187.58,1631.43 375.16,3262.87 562.8,4894.31z"/>
   <path class="fil7" d="M19717.91 22306.63c21.21,680.26 -269.64,1311.04 -759.07,1599.39 -683.68,402.68 -1690.14,99.21 -2185.84,-820.95 148.36,-1363.43 296.7,-2726.9 445,-4090.33 8.75,778.43 17.49,1556.86 26.25,2335.34 -318.55,-75.51 -636.98,-151.02 -955.53,-226.52 141.8,-1219.48 283.6,-2439.13 425.35,-3658.66 277.11,-214.64 554.17,-429.33 831.16,-643.98 57.83,45.32 279.09,207.58 587.09,177.79 240.77,-23.3 404.13,-151.37 466.54,-206.07 329.38,207.58 658.81,415.2 988.2,622.72 200.67,1302.16 401.36,2604.21 602.09,3906.38 -209.43,94.34 -418.85,188.74 -628.22,283.03 -135.31,-1193.58 -270.51,-2387.2 -405.77,-3580.83 187.59,1434.24 375.16,2868.52 562.75,4302.7z"/>
   <path class="fil3" d="M16365.32 18268.52c-125.1,472.64 -309.33,943.01 -284.87,1433.89 17.33,347.81 139.48,681.07 166.14,1028.19 27.64,360.15 -48.28,719.2 -71.51,1079.75 -31,481.73 32.45,964.09 95.67,1442.12 29.5,222.88 62.47,455.48 184.23,638.08 167.88,252.02 464.52,353.49 740.47,439.72 157.33,49.13 319.41,98.8 482.36,80.9 162.9,-17.9 328.98,-119.79 380.85,-287.72 36.1,-117.05 12.57,-244.65 20.05,-367.68 23.7,-388.2 342.99,-673.83 472.56,-1036.7 143.26,-401.3 40.92,-853.88 -99.32,-1256.46 -140.18,-402.39 -319.7,-802.58 -330.2,-1232.56 -8.92,-365.2 105.47,-718.56 185.38,-1073.51 80.03,-354.93 123.49,-743.07 -18.66,-1074.49 -99.73,-232.49 -281.63,-413.81 -386.51,-643.62 -64.79,-141.8 -99.39,-300.47 -182.89,-430.33 -138.5,-215.34 -392.72,-315.58 -635.24,-319.29 -253.06,-3.83 -750.78,24.34 -676.44,390.16 83.91,412.72 66.06,780.97 -42.07,1189.56z"/>
   <path class="fil5" d="M16366.6 25194l-1885.48 0c-280.53,0 -510.07,-229.54 -510.07,-510.07l0 -7401.21c0,-280.59 229.54,-510.07 510.07,-510.07l1885.48 0c280.53,0 510.07,229.48 510.07,510.07l0 7401.21c0,280.53 -229.54,510.07 -510.07,510.07z"/>
   <path class="fil2" d="M15019.52 25397.91l-1885.48 0c-280.53,0 -510.07,-229.53 -510.07,-510.06l0 -7401.22c0,-280.53 229.54,-510.06 510.07,-510.06l1885.48 0c280.53,0 510.06,229.53 510.06,510.06l0 7401.22c0,280.53 -229.53,510.06 -510.06,510.06z"/>
   <path class="fil3" d="M14286.19 23067.62c21.15,773.78 -269.64,1491.31 -759.13,1819.3 -683.68,458.08 -1690.08,112.82 -2185.78,-933.85 148.36,-1550.88 296.7,-3101.82 445,-4652.76 8.69,885.45 17.43,1770.92 26.24,2656.43 -318.55,-85.82 -637.03,-171.76 -955.52,-257.58 141.74,-1387.3 283.54,-2774.59 425.35,-4161.77 277.05,-244.19 554.11,-488.38 831.16,-732.59 57.77,51.64 279.09,236.14 587.08,202.25 240.78,-26.48 404.08,-172.16 466.55,-234.41 329.38,236.08 658.81,472.23 988.2,708.37 200.61,1481.16 401.34,2962.39 602.03,4443.56 -209.37,107.26 -418.8,214.59 -628.22,321.97 -135.26,-1357.8 -270.51,-2715.49 -405.77,-4073.23 187.65,1631.44 375.22,3262.87 562.81,4894.31z"/>
   <polygon class="fil4" points="9429.49,28064.03 13879.6,28064.03 13879.6,26102.52 9429.49,26102.52 "/>
   <polygon class="fil4" points="16209.33,28064.03 20659.44,28064.03 20659.44,25592.96 16209.33,25592.96 "/>
   <path class="fil0" d="M21525.15 28127.77l-12996.89 0c-35.23,0 -63.74,-28.57 -63.74,-63.74 0,-35.17 28.51,-63.75 63.74,-63.75l12996.89 0c35.24,0 63.75,28.58 63.75,63.75 0,35.17 -28.51,63.74 -63.75,63.74z"/>
   <path class="fil0" d="M21260.15 28127.77l-12466.88 0c-35.17,0 -63.74,-28.57 -63.74,-63.74l0 -14269.49c0,-35.23 28.57,-63.74 63.74,-63.74 35.24,0 63.75,28.51 63.75,63.74l0 14205.74 12339.4 0 0 -15985.46c0,-35.23 28.51,-63.75 63.74,-63.75 35.18,0 63.75,28.52 63.75,63.75l0 16049.21c0,35.17 -28.57,63.74 -63.75,63.74z"/>
   <path class="fil0" d="M8722.1 31216.56c-35.23,0 -63.74,-28.57 -63.74,-63.81l0 -3046.25c0,-35.23 28.51,-63.8 63.74,-63.8 35.29,0 63.81,28.57 63.81,63.8l0 3046.25c0,35.24 -28.52,63.81 -63.81,63.81z"/>
   <path class="fil0" d="M21331.32 31216.56c-35.24,0 -63.81,-28.57 -63.81,-63.81l0 -3046.25c0,-35.23 28.57,-63.8 63.81,-63.8 35.23,0 63.74,28.57 63.74,63.8l0 3046.25c0,35.24 -28.51,63.81 -63.74,63.81z"/>
   <polygon class="fil1" points="8488.29,30603.92 21583.39,30603.92 21583.39,30296.1 8488.29,30296.1 "/>
   <polygon class="fil1" points="8793.26,15715.02 21331.32,15715.02 21331.32,15367.24 8793.26,15367.24 "/>
   <path class="fil6" d="M12938.06 22170.91c21.21,680.26 -269.7,1311.04 -759.13,1599.33 -683.68,402.8 -1690.08,99.21 -2185.78,-820.85 148.36,-1363.47 296.64,-2726.95 445,-4090.44 8.75,778.5 17.49,1556.86 26.19,2335.34 -318.49,-75.5 -636.98,-150.95 -955.47,-226.4 141.8,-1219.6 283.6,-2439.19 425.41,-3658.7 277,-214.65 554.11,-429.35 831.1,-643.99 57.77,45.38 279.09,207.58 587.03,177.79 240.77,-23.3 404.19,-151.37 466.6,-206.07 329.38,207.52 658.77,415.15 988.2,622.72 200.67,1302.1 401.36,2604.21 602.03,3906.38 -209.37,94.34 -418.85,188.68 -628.22,283.03 -135.26,-1193.58 -270.51,-2387.15 -405.75,-3580.83 187.58,1434.24 375.21,2868.47 562.8,4302.7z"/>
   <path class="fil1" d="M19245.91 13859.73l-3560.09 0c-99.33,-79.63 -223.5,-207.81 -255.2,-389.25 -28.34,-162.26 -4.23,-329.85 242.17,-799.63 112.88,-215.29 275.54,-502.65 497.31,-828.04 813.73,11.82 1627.32,23.59 2441.04,35.41 259.02,221.71 421.1,450.2 516.95,608.63 124.95,206.42 211.06,390.81 261.82,651.06 29.62,152.01 30.01,389.13 -144.01,721.82z"/>
   <path class="fil1" d="M16208.34 11865.48c13.39,-89.94 74,-186.25 108.49,-269.87 40.51,-98.4 80.2,-197.26 121.86,-295.07 76.44,-179.71 156.53,-357.84 236.78,-535.51 75.97,-168.22 153.04,-336.28 274.33,-472.75 135.37,-152.36 374.46,-215.23 556.54,-118.97 156.75,82.86 268.71,308.98 347.34,467.88 87.97,177.96 155.42,366.35 220.22,555.38 53.3,155.66 101.87,314.44 202.53,443.54 45.48,58.36 102.45,107.09 159.13,152.12 62.46,49.67 143.25,75.75 142.84,174.49 -0.17,40.97 58.76,41.03 58.88,0 0.52,-113.98 -68.39,-157.21 -149.57,-215.62 -147.71,-106.34 -243.14,-246.58 -306.83,-425.18 -112.54,-315.76 -208.32,-651.57 -394.4,-928.57 -72.44,-107.84 -159.88,-244.36 -280.35,-292.99 -124.36,-50.12 -279.83,-45.77 -404.78,0.29 -256.83,94.69 -391.91,435.2 -498.82,677.78 -82.11,186.42 -167.24,371.22 -245.59,559.5 -38.36,92.14 -75.33,184.85 -113.87,276.88 -29.66,70.81 -79.91,152 -91.5,229.76 -6.02,40.11 50.7,57.32 56.79,16.93z"/>
   <path class="fil1" d="M18559.97 12103.42c-117.34,-131.96 -172.57,-292.47 -192.68,-470.66 -18.02,-160.41 -52.33,-321.74 -106.68,-472.29 -48.33,-133.8 -101.64,-279.6 -183.12,-394.22 -68.79,-96.9 -169.97,-157.62 -273.81,-200.5 -138.62,-57.32 -287.72,-86.52 -433.64,-112.76 -119.72,-21.51 -217.13,-27.41 -325.97,34.99 -219.67,126.16 -310.65,432.54 -350.23,680.79 -25.62,161.33 -23.41,328.1 -26.09,491.29 -2.48,156.41 -12.05,340.57 43.29,488.51 14.02,37.5 71.05,21.1 56.85,-16.92 -57.42,-153.33 -43.87,-346.37 -40.51,-509.08 3.89,-181.96 3.77,-363.8 43.47,-541.82 38.41,-172.45 105.28,-383.15 241,-493.66 63.92,-51.98 133.51,-89.47 215.11,-88.03 90.11,1.63 181.38,24.63 269.47,43.81 161.9,35.23 339.98,75.28 471,191.47 129.24,114.68 201.43,332.33 255.27,497.6 56.39,173.03 70.06,350.31 101.35,528.78 24.98,142.5 101.87,283.89 194.31,387.74 26.24,29.6 67.86,-15.48 41.6,-45.03z"/>
   <polygon class="fil1" points="8793.26,14494.56 21331.32,14494.56 21331.32,13799 8793.26,13799 "/>
   <path class="fil7" d="M42153.78 28064.03l-2679.67 0c4.23,-178.66 17.84,-375.57 47.17,-586.97 55.69,-398.39 150.9,-738.73 248.66,-1011.9 713.7,25.9 1427.1,51.87 2140.45,77.84 94.46,161.73 243.39,465.44 281.05,877.45 24.93,264.77 -4.63,487.88 -37.66,643.58z"/>
   <path class="fil8" d="M40237.54 26600.29c-42.94,-171.41 -69.71,-336.28 5.1,-505.77 97.29,-220.44 355.34,-318.67 582.97,-269.52 358.7,77.18 399.27,504.43 415.49,806.41 4.06,81.64 131.55,82.11 127.49,0 -21.43,-407.56 -127.49,-936.39 -632.22,-945.84 -188.97,-3.48 -434.67,66.29 -548.13,228.08 -153.45,218.35 -133.92,478.95 -74,720.54 19.99,79.56 142.85,45.83 123.32,-33.91z"/>
   <path class="fil8" d="M40374.82 26644.8c53.54,-127.78 91.38,-281.05 187,-385.99 114.85,-125.58 314.77,-159.83 472.4,-200.62 186.6,-48.51 366.81,-92.84 516.9,72.73 146.61,161.44 93.88,391.44 32.45,582.62 -24.92,78.29 97.94,111.84 122.86,33.91 62,-193.84 113.57,-437.06 7.53,-625.45 -91.56,-163.65 -293.8,-259.37 -476.91,-238.98 -213.26,23.64 -496.63,86.81 -678.59,206.7 -173.44,114.68 -230.81,340.4 -306.5,521.19 -31.87,75.63 91.39,108.66 122.86,33.91z"/>
   <path class="fil2" d="M44322.23 23238.4c-74.18,86.45 -542.4,613.44 -1348.46,658.06 -935.88,51.81 -1514.2,-593.1 -1570.41,-658.06 87.5,-1638.62 175.01,-3277.24 261.93,-4915.86 30.71,-354.41 61.42,-708.95 91.56,-1063.41 328.57,-2.55 664.09,-8.34 1004.83,-17.74 428.83,-11.82 847.2,-28.86 1255.75,-50.23 101.98,2015.67 203.4,4031.48 304.81,6047.24z"/>
   <path class="fil6" d="M43064.74 24766.57c-74.75,108.35 -542.4,768.51 -1348.47,824.38 -937.03,64.89 -1514.43,-742.96 -1570.58,-824.38 87.15,-2052.72 174.31,-4105.39 261.87,-6158.11 30.59,-444.07 60.79,-888.07 91.39,-1332.11 328.97,-3.19 663.91,-10.49 1005.23,-22.25 428.25,-14.84 847.22,-36.11 1255.76,-62.93 101.41,2525.11 202.82,5050.23 304.81,7575.41z"/>
   <path class="fil4" d="M41837.38 24653.39c-74.17,108.35 -542.4,768.46 -1347.84,824.38 -936.79,64.89 -1514.43,-743.02 -1570.52,-824.38 87.09,-2052.66 174.25,-4105.39 261.4,-6158.11 30.6,-444.07 61.2,-888.13 91.8,-1332.11 328.57,-3.25 663.91,-10.43 1004.83,-22.25 429.17,-14.84 847.56,-36.16 1255.52,-62.93 101.41,2525.11 203.41,5050.23 304.81,7575.41z"/>
   <path class="fil3" d="M40188.22 24688.79c-74,108.37 -541.94,768.46 -1347.84,824.33 -936.85,64.89 -1514.49,-742.9 -1570.58,-824.33 87.09,-2052.72 174.25,-4105.44 261.4,-6158.1 30.6,-444.07 61.2,-888.13 91.8,-1332.18 329.03,-3.18 663.97,-10.42 1005.24,-22.19 428.47,-14.83 847.15,-36.16 1255.23,-62.99 101.58,2525.11 203.17,5050.29 304.75,7575.47z"/>
   <path class="fil0" d="M37645.55 16452.01l-935.13 673.95 1873.67 -13.1 -938.54 -660.85zm-1134.46 802.88c-27.65,0 -51.87,-17.74 -60.39,-43.98 -8.93,-26.37 0.46,-55.29 22.95,-71.51l1101.32 -793.85 -61.61 -337.21c-5.57,-30.24 11.47,-60.21 40.39,-71.1 36.98,-13.9 161.1,-69.53 202.3,-198.65 36.98,-115.38 -1.67,-247.79 -56.09,-327.76 -33.62,-49.6 -74.41,-80.55 -108.43,-82.75 -47.98,-3.24 -97.7,48.62 -123.26,79.74 -22.48,27.12 -62.46,31 -89.64,8.64 -27.24,-22.37 -31.06,-62.53 -8.52,-89.76 71.86,-87.56 150.9,-131.37 229.94,-125.86 75.28,4.98 147.95,54 205.31,138.26 87.56,128.87 116.02,300.93 72.27,438.38 -45.89,142.56 -158.14,220.44 -229.54,257.12l54.82 302.03 1117.49 786.42c22.54,15.94 32.34,44.68 24.22,71.16 -8.52,26.43 -32.74,44.57 -60.38,44.74l-2272.76 15.94 -0.4 0z"/>
   <path class="fil0" d="M38726.86 16452.01l-934.66 673.95 1873.61 -13.1 -938.95 -660.85zm-1133.99 802.88c-27.64,0 -52.33,-17.74 -60.79,-43.98 -8.52,-26.37 0.81,-55.29 23.35,-71.51l1101.32 -793.85 -61.67 -337.21c-5.49,-30.24 11.48,-60.21 40.4,-71.1 36.97,-13.9 160.69,-69.53 202.36,-198.65 36.51,-115.38 -1.75,-247.79 -56.1,-327.76 -34.01,-49.6 -74.4,-80.55 -108.43,-82.75 -47.63,-3.24 -97.75,48.62 -123.26,79.74 -22.53,27.12 -62.46,31 -89.7,8.64 -27.17,-22.37 -31,-62.53 -8.92,-89.76 72.26,-87.51 151.77,-131.26 230.4,-125.86 74.81,4.98 147.89,54 205.31,138.2 87.57,128.89 116.02,300.99 71.8,438.44 -45.48,142.56 -157.67,220.44 -229.53,257.12l55.28 302.03 1117.43 786.42c22.54,15.94 32.34,44.74 23.82,71.16 -8.06,26.43 -32.74,44.57 -60.33,44.74l-2272.35 15.94 -0.4 0z"/>
   <path class="fil0" d="M40466.61 16452.01l-934.66 673.95 1873.72 -13.1 -939.06 -660.85zm-1134.01 802.88c-27.64,0 -52.33,-17.74 -60.79,-43.98 -8.52,-26.37 0.81,-55.29 23.35,-71.51l1101.32 -793.85 -61.65 -337.21c-5.51,-30.24 11.53,-60.21 40.39,-71.1 37.04,-13.9 160.69,-69.43 201.9,-198.65 36.97,-115.38 -1.28,-247.73 -55.63,-327.7 -34.03,-49.67 -74.41,-80.61 -108.43,-82.81 -47.58,-3.24 -97.76,48.57 -123.26,79.68 -22.54,27.18 -62.47,31.18 -89.7,8.7 -27.18,-22.31 -31,-62.53 -8.93,-89.7 72.27,-87.57 151.77,-131.03 230.41,-125.92 74.81,4.98 147.89,54 205.25,138.26 87.51,128.93 115.9,300.99 71.86,438.38 -45.19,142.56 -157.68,220.49 -229.53,257.18l55.28 301.97 1117.66 786.42c22.6,15.94 31.87,44.74 23.76,71.16 -8.11,26.43 -33.03,44.57 -60.27,44.74l-2272.58 15.94 -0.41 0z"/>
   <path class="fil0" d="M41602.7 16452.01l-934.72 673.95 1874.07 -13.1 -939.35 -660.85zm-1133.95 802.88c-27.64,0 -51.87,-17.74 -60.79,-43.98 -8.52,-26.37 0.87,-55.29 23.41,-71.51l1101.2 -793.85 -61.42 -337.21c-5.8,-30.24 11.59,-60.21 40.57,-71.1 36.51,-13.9 160.51,-69.53 202.24,-198.65 36.51,-115.38 -1.74,-247.79 -56.21,-327.76 -33.62,-49.6 -74.76,-80.55 -108.37,-82.75 -47.52,-3.24 -97.93,48.62 -123.43,79.74 -22.6,27.12 -62.59,31 -89.82,8.64 -27.24,-22.37 -30.71,-62.53 -8.7,-89.76 72.44,-87.56 151.25,-131.37 230.06,-125.86 75.34,4.98 148.36,54 205.72,138.26 87.5,128.87 115.9,300.93 71.86,438.38 -45.79,142.56 -157.62,220.44 -229.48,257.12l55.05 302.03 1117.26 786.42c22.6,15.94 32.45,44.68 24.34,71.16 -8.7,26.43 -32.46,44.57 -60.85,44.74l-2272.23 15.94 -0.41 0z"/>
   <path class="fil0" d="M47828.13 28127.77l-12996.87 0c-35.29,0 -63.74,-28.57 -63.74,-63.74 0,-35.17 28.45,-63.75 63.74,-63.75l12996.87 0c34.77,0 63.74,28.58 63.74,63.75 0,35.17 -28.97,63.74 -63.74,63.74z"/>
   <path class="fil0" d="M47562.72 28127.77l-12466.63 0c-35.29,0 -63.75,-28.57 -63.75,-63.74l0 -16049.21c0,-35.23 28.46,-63.75 63.75,-63.75 35.29,0 63.74,28.52 63.74,63.75l0 15985.46 12339.16 0 0 -14205.74c0,-35.23 28.4,-63.74 63.74,-63.74 35.35,0 63.75,28.51 63.75,63.74l0 14269.49c0,35.17 -28.4,63.74 -63.75,63.74z"/>
   <path class="fil0" d="M35025.09 31216.56c-35.29,0 -63.75,-28.57 -63.75,-63.81l0 -3046.25c0,-35.23 28.46,-63.8 63.75,-63.8 35.29,0 63.74,28.57 63.74,63.8l0 3046.25c0,35.24 -28.45,63.81 -63.74,63.81z"/>
   <polygon class="fil1" points="34791.32,30603.92 47886.42,30603.92 47886.42,30296.1 34791.32,30296.1 "/>
   <polygon class="fil1" points="35096.09,15715.02 47634.35,15715.02 47634.35,15367.24 35096.09,15367.24 "/>
   <polygon class="fil1" points="35096.09,14494.56 47634.35,14494.56 47634.35,13799 35096.09,13799 "/>
   <path class="fil1" d="M39023.97 24132.08c-73.94,100.2 -541.94,710.4 -1347.84,762.02 -936.8,59.98 -1514.43,-686.74 -1570.59,-762.02 87.16,-1897.36 174.32,-3794.66 261.41,-5692.03 30.6,-410.39 61.2,-820.89 91.85,-1231.34 210.36,95.38 530,207.34 929.15,226.46 618.03,29.68 1094.08,-178.94 1331.26,-305.21 101.6,2334.05 203.18,4668.05 304.76,7002.12z"/>
   <path class="fil2" d="M37501.89 27995.47l-1737.66 0c-54.41,-35.98 -120.7,-89.41 -112.64,-137.97 10.19,-64.21 143.71,-77.3 279.71,-122.1 113.07,-37.21 272.88,-111.32 451.42,-276.01 91.39,32.22 239.28,70.76 422.04,58.36 230,-15.53 401.3,-103.91 490.94,-159.25 42.54,48.33 95.22,120.13 137.28,217.66 75.68,174.95 74.81,336.27 68.91,419.31z"/>
   <path class="fil2" d="M38895.62 27995.47l-1737.19 0c-54.41,-35.98 -121.11,-89.41 -113.07,-137.97 10.6,-64.21 143.66,-77.3 279.66,-122.1 113.11,-37.21 273.35,-111.32 451.83,-276.01 90.98,32.22 238.93,70.76 422.1,58.36 229.53,-15.53 400.83,-103.91 490.53,-159.25 42.48,48.33 95.21,120.13 137.69,217.66 75.27,174.95 74.81,336.27 68.44,419.31z"/>
   <path class="fil0" d="M25107.67 6659.76l-1182.79 852.72 2370.86 -16.69 -1188.07 -836.03zm-1382.2 981.59c-27.52,0 -52.04,-17.74 -60.62,-43.98 -8.63,-26.37 0.82,-55.29 23.36,-71.51l1349.04 -972.55 -76.49 -419.61c-5.57,-30.31 11.35,-60.27 40.22,-71.16 46.53,-17.51 202.76,-87.62 255.08,-250.87 46.3,-145.1 -1.74,-311.24 -70.17,-411.55 -43.52,-63.92 -96.9,-103.9 -142.67,-106.92 -64.04,-3.7 -128.99,62.18 -161.97,102.17 -22.36,27.17 -62.58,31.11 -89.7,8.75 -27.18,-22.42 -31.06,-62.64 -8.75,-89.76 84.9,-103.15 178.02,-155.02 268.76,-148.4 87.22,5.8 172.57,63.45 239.73,162.43 104.55,153.62 138.15,358.58 85.88,522.17 -56.1,175.24 -197.66,268.31 -281.92,309.8l70 384.03 1366.37 961.66c22.54,15.94 32.28,44.74 24.23,71.16 -8.52,26.48 -32.75,44.57 -60.39,44.74l-2769.54 19.41 -0.47 0z"/>
   <path class="fil0" d="M31155.38 6740.19l-1182.9 852.72 2370.91 -16.57 -1188.01 -836.15zm-1382.31 981.66c-27.58,0 -52.27,-17.74 -60.73,-43.99 -8.52,-26.36 0.81,-55.28 23.35,-71.51l1349.1 -972.61 -76.49 -419.61c-5.51,-30.36 11.47,-60.21 40.39,-71.1 46.3,-17.56 202.3,-87.5 254.63,-250.86 46.71,-145.1 -1.74,-311.24 -69.77,-411.61 -43.75,-63.92 -96.88,-103.85 -142.78,-106.92 -63.75,-4.11 -128.83,62.23 -161.97,102.22 -22.07,27.12 -62.47,31.12 -89.64,8.69 -27.24,-22.3 -31.06,-62.58 -8.52,-89.7 84.61,-103.09 177.26,-155.13 268.59,-148.4 87.15,5.74 172.16,63.4 239.79,162.37 104.54,153.62 138.15,358.6 85.82,522.18 -56.1,175.36 -197.67,268.42 -281.81,309.86l69.71 383.96 1366.55 961.72c22.54,15.94 32.34,44.69 24.22,71.16 -8.46,26.48 -32.74,44.51 -60.32,44.74l-2769.67 19.42 -0.46 0z"/>
   <path class="fil1" d="M34736.04 30822.39l-13134.34 0 0 -26851.45 13134.34 0 0 26851.45zm-13546.48 -27362.91l0 27874.43 13958.38 0 0 -27874.43 -13958.38 0z"/>
   <polygon class="fil1" points="21471.72,16636.93 35018.25,16636.93 35018.25,16227.69 21471.72,16227.69 "/>
   <path class="fil5" d="M27372.83 15230.86c-437.39,186.07 -1042.27,384.55 -1780.59,458.14 -1254.88,125.22 -2264.35,-173.5 -2830.28,-392.37 62.41,-2438.96 124.76,-4877.91 187.12,-7316.8 96.31,-105.13 207.11,-214.53 333.79,-323.12 291.89,-250.4 580.7,-421.92 824.56,-540.25 0.87,653.31 511.46,1180.94 1112.09,1191.13 554.69,9.45 1053.69,-424.88 1138.69,-1019.84 424.19,202.07 848.84,404.14 1273.49,606.21 -86.29,2445.61 -172.57,4891.23 -258.87,7336.9z"/>
   <path class="fil6" d="M33214.37 15335.58c-376.21,191 -1167.67,526.17 -2198.82,464.52 -718.4,-43 -1279.46,-262.28 -1622.92,-430.85 125.46,-1845.67 250.81,-3691.22 376.21,-5536.84 -53.54,-97.7 -170.43,-341.96 -147.48,-666.53 16.57,-228.72 95.21,-400.54 147.48,-494.77 -184.45,71.86 -368.5,143.66 -553,215.46 -116.89,-277.11 -233.36,-554.22 -350.25,-831.39 340.51,-265.87 680.55,-531.8 1021,-797.66 77.76,624.45 581.46,1097.79 1168.07,1120.79 630.32,24.75 1196.53,-476.4 1266.19,-1151.09 376.61,178.36 752.81,356.79 1128.96,535.15 -87.97,329.85 -176.39,659.69 -264.83,989.6 -245.64,-10.15 -490.88,-20.23 -736.18,-30.31 51.87,129.34 119.03,344.28 117.75,615.95 -0.87,195.46 -36.98,357.08 -72.27,471.24 240.14,1842.24 480.35,3684.5 720.08,5526.76z"/>
   <polygon class="fil4" points="36000.14,13799 40927.81,13799 40927.81,11702.14 36000.14,11702.14 "/>
   <path class="fil7" d="M37034.76 11295.61c0,224.55 -168.33,406.51 -375.8,406.51 -207.81,0 -375.74,-181.96 -375.74,-406.51 0,-224.43 167.94,-406.45 375.74,-406.45 207.47,0 375.8,182.02 375.8,406.45z"/>
   <path class="fil0" d="M36658.96 10952.9c-172.1,0 -311.93,153.8 -311.93,342.72 0,188.97 139.83,342.7 311.93,342.7 172.18,0 312,-153.73 312,-342.7 0,-188.91 -139.83,-342.72 -312,-342.72zm0 812.97c-242.28,0 -439.48,-210.94 -439.48,-470.25 0,-259.27 197.2,-470.2 439.48,-470.2 242.35,0 439.55,210.94 439.55,470.2 0,259.31 -197.2,470.25 -439.55,470.25z"/>
   <path class="fil7" d="M38147.56 11295.61c0,224.55 -168.35,406.51 -376.21,406.51 -207.4,0 -375.74,-181.96 -375.74,-406.51 0,-224.43 168.35,-406.45 375.74,-406.45 207.87,0 376.21,182.02 376.21,406.45z"/>
   <path class="fil0" d="M37771.35 10952.9c-172.1,0 -311.99,153.8 -311.99,342.72 0,188.97 139.89,342.7 311.99,342.7 172.16,0 312.4,-153.73 312.4,-342.7 0,-188.91 -140.24,-342.72 -312.4,-342.72zm0 812.97c-242.29,0 -439.48,-210.94 -439.48,-470.25 0,-259.27 197.19,-470.2 439.48,-470.2 242.69,0 439.95,210.94 439.95,470.2 0,259.31 -197.26,470.25 -439.95,470.25z"/>
   <path class="fil0" d="M37034.76 11359.35l-5.57 -0.17c-35.29,-3.19 -61.18,-34.25 -57.77,-69.3 6.78,-77.08 44.22,-147.72 101.99,-193.9 51,-40.8 113.07,-58.93 173.44,-50.59 113.46,15.24 202.77,118.51 212.5,245.47 2.54,35.12 -23.82,65.71 -59.05,68.39 -34.42,2.83 -65.49,-23.65 -68.44,-58.82 -4.7,-66.17 -48.92,-121.52 -102.05,-128.7 -25.9,-3.3 -53.14,5.05 -76.9,23.93 -31.06,24.63 -50.59,63.17 -54.41,105.76 -3.01,33.09 -31,57.94 -63.75,57.94z"/>
   <path class="fil7" d="M39395.48 11451.79c0,138.26 -167.89,250.34 -375.74,250.34 -207.41,0 -375.74,-112.08 -375.74,-250.34 0,-138.27 168.33,-250.35 375.74,-250.35 207.85,0 375.74,112.08 375.74,250.35z"/>
   <path class="fil0" d="M39019.74 11265.19c-169.15,0 -312,85.47 -312,186.6 0,101.11 142.85,186.53 312,186.53 169.15,0 311.99,-85.41 311.99,-186.53 0,-101.13 -142.84,-186.6 -311.99,-186.6zm0 500.67c-246.52,0 -439.49,-137.97 -439.49,-314.08 0,-176.17 192.97,-314.09 439.49,-314.09 246.51,0 439.48,137.92 439.48,314.09 0,176.1 -192.97,314.08 -439.48,314.08z"/>
   <path class="fil7" d="M40508.27 11451.79c0,138.26 -168.35,250.34 -376.15,250.34 -207.46,0 -375.74,-112.08 -375.74,-250.34 0,-138.27 168.29,-250.35 375.74,-250.35 207.81,0 376.15,112.08 376.15,250.35z"/>
   <path class="fil0" d="M40132.12 11265.19c-169.15,0 -311.99,85.47 -311.99,186.6 0,101.11 142.84,186.53 311.99,186.53 169.15,0 312.4,-85.41 312.4,-186.53 0,-101.13 -143.25,-186.6 -312.4,-186.6zm0 500.67c-246.57,0 -439.54,-137.97 -439.54,-314.08 0,-176.17 192.97,-314.09 439.54,-314.09 246.52,0 439.89,137.92 439.89,314.09 0,176.1 -193.37,314.08 -439.89,314.08z"/>
   <path class="fil0" d="M39395.88 11515.53l-9.33 -0.64c-34.83,-5.1 -59.05,-37.5 -53.95,-72.38 15.3,-104.66 137.28,-180.74 272.01,-169.5 113.93,9.45 204.05,81.43 215.11,171.07 4.23,35 -20.86,66.75 -55.69,70.99 -34.88,4.11 -66.75,-20.64 -70.98,-55.64 -3.02,-24.92 -43.35,-54.76 -99.04,-59.39 -67.16,-5.34 -130.5,28.92 -135.2,61.01 -4.69,31.7 -31.87,54.47 -62.93,54.47z"/>
   <path class="fil5" d="M8079.28 11815.82c662.42,-898.56 1574.94,-1553.56 2571.77,-1846.08 -605.33,-285.86 -1302.58,-232.26 -1923.09,7.65 -620.45,239.84 -1177.12,653.02 -1712.56,1083.58 527.11,-897.1 1359.31,-1554.42 2280.99,-1801.63 -1441.71,-206.59 -2837.99,608.11 -4054.46,1514.49 600.29,-1202.73 1642.74,-2107.43 2819.04,-2446.66 -746.95,-217.31 -1546.24,-79.04 -2268,229.88 -721.75,308.87 -1379.81,780.58 -2032.27,1249.04 748.3,-875.61 1703.24,-1519.36 2736.7,-1844.75 -771.53,-99.84 -1554.48,106.86 -2268.88,454.09 -714.28,347.17 -1370.07,831.1 -2021.76,1312.54 859.37,-971.46 1906.1,-1726.13 3044.1,-2194.76 -1736.14,-93.12 -3495.35,589.63 -4821.39,1871.22 797.66,-1182.1 1920.02,-2074.86 3168.22,-2520.31 -1119.68,-117.05 -2217.11,342.14 -3269.46,793.72 596.63,-545.06 1201.27,-1095.87 1896.9,-1457.24 695.66,-361.43 1503.41,-519.22 2229.85,-247.84 -358.76,-295.54 -717.41,-591.14 -1076.17,-886.79 1292.09,31.23 2571.54,550.16 3590.69,1456.66 -368.21,-627.83 -817.61,-1193.51 -1329.17,-1673.1 1034.56,735.54 1969.5,1653.04 2761.49,2710.21 -202.47,-850.34 -580.53,-1645.52 -1094.94,-2302.89 910.84,884.54 1668.92,1972.76 2218.64,3184.63 127.31,-636.62 38.41,-1326.21 -244.08,-1894.17 471.7,999.28 943.41,1998.66 1415.1,2997.93 120.19,-782.94 9.16,-1609.75 -310.94,-2315.81 457.03,718.87 830.17,1507.08 1106.35,2337.32 10.78,-442.85 -62.99,-888.13 -214.82,-1295.92 120.54,323.76 320.46,632.92 512.96,904.93 100.66,142.26 207.93,278.39 321.27,407.61 101.64,115.9 257.64,226.7 333.79,359.75 -74.81,92.2 -293.63,47.22 -398.45,53.14 -155.95,8.87 -311.59,24.22 -466.61,45.83 -310.03,43.35 -617.33,112.02 -918.89,204.68 -603.25,185.49 -1183.78,467.35 -1718.36,836.26 -304.35,210.06 -593.8,448.35 -863.56,712.77z"/>
   <path class="fil2" d="M10326.65 8723.32c582.74,-34.83 1173.82,142.73 1665.92,500.45 -130.51,-396.61 -419.9,-705.36 -747.2,-905.57 -327.29,-200.32 -692.77,-303.41 -1056.4,-389.71 529.82,-98.16 1090.65,40.57 1537.21,380.26 -483,-761.1 -1319.38,-1105.37 -2119.41,-1329.28 669.13,-181.9 1401.2,-39.64 1979.7,384.84 -210.18,-437.06 -569.81,-761.16 -961.37,-982.58 -391.56,-221.43 -817.59,-349.79 -1240.28,-476.64 607.72,14.54 1211.07,216.55 1729.25,578.86 -262.34,-403.21 -640.51,-693.07 -1043.07,-896.19 -402.57,-203.05 -832.21,-325.56 -1259.29,-447.07 685.42,29.95 1364.69,232.31 1975.36,588.58 -638.25,-856.31 -1567.17,-1423.16 -2545.87,-1553.5 738.1,-80.71 1496.76,103.91 2141.68,521.19 -390.93,-574.27 -982.47,-915.07 -1553.79,-1237.38 428.88,70.82 862.91,143.31 1263.46,332.05 400.54,188.85 770.48,509.31 953.14,957.6 -31.53,-283.83 -63.05,-567.77 -94.51,-851.67 488.79,622.49 795.57,1427.91 860.88,2260.24 85.53,-416.95 116.99,-848.26 93.06,-1275.58 133.39,773.45 162.08,1570.36 84.71,2353.78 230.47,-424.83 372.91,-911.25 412.49,-1408.68 31.4,772.63 -70.35,1552.1 -297.75,2280.87 280.53,-186.31 496.57,-495.23 593.46,-848.55 -180.35,609.68 -360.68,1219.42 -541.01,1829.1 330.94,-246.29 588.18,-618.78 720.71,-1043.38 -84.2,494.19 -226,975.58 -420.6,1427.45 164.98,-166.31 298.15,-373.54 387.45,-603.13 -70.87,182.25 -105.75,396.37 -130.04,592.64 -12.69,102.62 -20.63,206.01 -23.7,309.62 -2.72,92.84 17.45,209.43 -1.45,296.87 -62.41,0.35 -130.79,-120.42 -173.5,-167.65 -63.57,-70.23 -129.39,-137.86 -197.31,-202.7 -135.72,-129.75 -279.6,-248.31 -429.98,-354.94 -300.87,-213.19 -627.93,-378.34 -968.84,-488.1 -194.07,-62.53 -392.67,-106.98 -593.11,-132.13z"/>
   <path class="fil2" d="M12528.6 10033.37c244.54,-1041.87 391.09,-2113.51 436.47,-3190.78 264.48,548.65 317.97,1224.23 143.95,1818.03 360.03,-799.11 454.84,-1749.19 261.46,-2620.1 281.81,586.21 374.07,1287.86 255.51,1942.62 361.72,-801.6 451.82,-1757.77 247.61,-2628.74 258.74,604.99 331,1311.21 201.19,1967.89 233.65,-456.12 468.81,-916.18 617.1,-1416.56 148.3,-500.45 205.25,-1050.5 76.03,-1557.79 249.53,637.38 324.4,1362.09 211.58,2048.09 338.18,-795.34 685.42,-1648.98 585.45,-2525.64 182.08,673.43 188.8,1407.18 18.95,2084.71 458.26,-651.34 672.61,-1518.72 580.18,-2347.16 55.28,709.7 30.19,1427.45 -74.4,2129.85 253.12,-337.03 507.98,-676.84 698.11,-1064 190.13,-387.21 313.45,-829.65 281.28,-1271.86 59.46,679.62 -24.8,1375.07 -243.49,2010.82 414.56,-722.09 967.68,-1340.23 1609.13,-1798.27 -450.03,545.71 -821.09,1176.02 -1093.62,1857.73 326.96,-375.74 802.36,-576.47 1264.92,-534.06 -496.63,323.3 -948.91,735.14 -1335.32,1215.95 469.61,-190.95 1017.75,-108.78 1428.14,214.06 -866.16,-9.39 -1784.7,-2.89 -2522.11,515.57 443.66,48.34 874.8,237.89 1232.06,541.71 -697.36,-107.67 -1408.56,-98.28 -2103.55,27.87 588.24,119.03 1137.83,473.03 1531.01,986.12 -688.2,-325.97 -1443.68,-465.21 -2186.82,-403.15 551.27,253.35 1046.95,662.3 1430.35,1180.25 -698.97,-256.89 -1432.9,-516.84 -2155.52,-367.92 557.53,169.85 1075.88,504.22 1490.85,961.66 -671.63,-208.55 -1372.28,-418.68 -2055.57,-267.09 408.89,-33.56 827.51,141.04 1121.03,467.42 -496.34,-252.95 -1051.54,-353.79 -1592.21,-289.05 295.83,88.49 560.65,304.92 729.29,595.88 -388.84,-151.83 -819.92,-158.78 -1212.29,-19.7l123.26 -264.36z"/>
   <path class="fil5" d="M12521.59 9778.56c24.05,-291.71 -48.39,-592.4 -199.7,-829.18 -151.31,-236.72 -380.14,-407.38 -630.95,-470.55 340.51,-21.78 685.88,164.57 886.91,478.78 -137.45,-385.19 -466.61,-628.46 -776.81,-846.98 143.77,-82.06 319.88,-86.52 466.72,-11.88 146.9,74.63 261.7,226.93 304.35,403.79 -43.81,-224.26 -192.91,-406.75 -366.13,-524.1 -173.15,-117.22 -370.36,-178.48 -564.77,-238.52 162.61,-75.22 350.66,-48.1 512.39,29.56 161.74,77.71 302.5,201.84 441.05,324.57 -151.65,-434.84 -550.1,-741.51 -960.38,-739.07 169.97,-21.51 343.4,-42.83 510.71,-2.1 167.24,40.74 330.24,155.02 396.54,334.78 -179.35,-395.04 -525.19,-686.18 -908.98,-765.22 330.71,-23.41 667.92,115.5 909.21,374.46 -179.76,-439.54 -546.69,-773.27 -962.35,-875.43 310.95,-80.73 658.01,64.09 849.93,354.64 -101.7,-334.65 -407.15,-520.33 -686.86,-674.24 190.59,25.62 374.17,115.56 521.71,255.55 -228.72,-302.67 -524.74,-538.86 -852.49,-680.08 261.87,93.58 515.92,215.4 757.73,363.22 -229.77,-392.26 -491.29,-760.35 -780.11,-1098.02 392.32,127.02 736.42,437.68 934.84,844.2 52.44,-205.95 159.71,-393.3 303.94,-530.99 -154.44,337.27 -201.61,736.71 -130.91,1108.45 108.19,-229.53 302.67,-403.96 523.69,-469.9 -215.17,268.7 -346.59,623.01 -365.78,986.23 141.62,-193.84 347.57,-324.92 566.57,-360.73 -287.78,204.38 -458.26,605.21 -420.95,989.53 61.89,-171.82 194.94,-300.11 341.79,-380.55 146.72,-80.49 308.05,-118.8 467.53,-156.34 -434.09,137.39 -779.59,585.05 -844.03,1093.61 146.38,-271.19 428.01,-439.6 706.87,-422.5 -203.35,120.07 -409.24,242.29 -577.93,418.91 -168.68,176.62 -298.38,417.35 -305.97,678.35 231.05,-333.03 577.58,-558.86 946.42,-616.74 -357.84,196.44 -630.54,584 -721.23,1025.05 141.1,-236.66 403.55,-371.16 652.44,-334.37 -179.86,79.92 -362.4,161.56 -515.57,295.48 -153.16,134.03 -275.66,329.96 -288.76,549.53 228.14,-205.84 539.51,-286.16 823.11,-212.44 -356.45,83.68 -674.59,358.58 -841.82,727.31 -52.33,-164.92 -210.53,-246.75 -352.62,-314.02 -141.98,-67.34 -298.97,-157.33 -341.15,-326.03 209.37,-34.53 429.17,20.29 606.79,151.42 -221.25,-180.62 -442.44,-361.19 -663.63,-541.87 229.24,-14.66 461.79,45.66 662.94,171.98l-34.3 462.43z"/>
   <path class="fil6" d="M14011.97 13813.72c-804.16,0 -1608.26,0 -2412.42,0 -168.8,-362.58 -333.09,-760.93 -482.48,-1194.21 -327.75,-950.77 -500.73,-1829.04 -589.69,-2578.77 1381.91,-80.73 2763.82,-161.51 4145.79,-242.29 -43.06,750.2 -134.79,1581.49 -303.83,2474.94 -103.73,548.48 -225.71,1062.67 -357.37,1540.34z"/>
   <path class="fil9" d="M12380.18 32329.58c-0.05,160.57 -2.08,320.58 -25.43,479.82 -7.42,50.94 70.46,72.85 78.05,21.45 24.4,-166.61 28.23,-333.09 28.29,-501.26 0.05,-52.04 -80.91,-52.15 -80.91,0z"/>
   <path class="fil3" d="M52411.88 32437.83c0,0 0,0 -0.58,0l231.22 -1662.37 2270.43 0 121.7 774.94c-1528.7,157.57 -2593.22,495 -2622.78,887.43zm3092.16 -928.97l-71.86 -456.23 322.77 439.25c-84.61,5.16 -168.06,10.77 -250.92,16.98zm-9123.47 -391.85l-251.49 -341.55 299.59 0 -48.1 341.55z"/>
   <path class="fil10" d="M52411.3 32454.41l-1.74 0 1.74 -16.58c0.58,0 0.58,0 0.58,0 0,5.57 -0.58,11.01 -0.58,16.58z"/>
   <path class="fil11" d="M53105.52 32454.41l-694.23 0c0,-5.57 0.58,-11.01 0.58,-16.58 235.28,3.54 466.49,9.11 693.65,16.58z"/>
   <path class="fil3" d="M4255.06 9966.79c0,1174.97 -952.5,2127.54 -2127.52,2127.54 -1175.02,0 -2127.54,-952.56 -2127.54,-2127.54 0,-1175.03 952.52,-2127.54 2127.54,-2127.54 1175.02,0 2127.52,952.5 2127.52,2127.54z"/>
   <path class="fil6" d="M44883.17 26599.6c-186.6,297.17 -373.19,594.45 -559.79,891.61 -323.93,168.1 -647.87,336.22 -971.81,504.27 431.72,0 863.44,0 1295.74,0 175.01,-293.68 350.02,-587.43 525.01,-881.05 80.56,-8.87 160.53,-17.72 240.49,-26.59 80.55,-134.68 94.45,-298.33 29.56,-413.94 -93.88,-167.07 -350.6,-229.18 -559.21,-74.29z"/>
   <path class="fil6" d="M45302.72 28022.01l-115.32 0 0 -1119.92c82.28,2.66 164.57,5.34 247.45,8 -44.05,370.58 -88.09,741.28 -132.13,1111.92z"/>
   <path class="fil6" d="M46433.88 26599.6c-186.6,297.17 -373.2,594.45 -559.79,891.61 -323.94,168.1 -647.87,336.16 -971.81,504.27 432.3,0 864.02,0 1295.74,0 175.01,-293.74 350.02,-587.43 525.59,-881.05 79.98,-8.87 159.95,-17.72 240.49,-26.59 79.97,-134.68 94.45,-298.39 28.98,-413.94 -93.88,-167.07 -350.6,-229.18 -559.21,-74.29z"/>
   <path class="fil6" d="M46853.43 28022.01l-115.32 0 0 -1119.92c82.86,2.66 165.15,5.34 248.02,8 -44.05,370.58 -88.67,741.28 -132.71,1111.92z"/>
   <path class="fil5" d="M45983.04 23238.4c-74.18,86.45 -541.82,613.44 -1347.9,658.06 -937.03,51.81 -1514.19,-593.1 -1570.4,-658.06 86.92,-1638.62 173.85,-3277.24 261.34,-4915.86 30.71,-354.41 60.85,-708.95 91.56,-1063.41 328.57,-2.55 664.09,-8.34 1004.83,-17.74 428.83,-11.82 847.79,-28.86 1255.76,-50.23 101.4,2015.67 203.4,4031.48 304.81,6047.24z"/>
   <path class="fil0" d="M42860.76 16452.01l-934.71 673.95 1874.05 -13.1 -939.35 -660.85zm-1134.05 802.88c-27.23,0 -52.16,-17.74 -60.85,-43.98 -8.11,-26.37 1.16,-55.29 23.76,-71.51l1101.03 -793.85 -61.42 -337.21c-5.8,-30.24 11.01,-60.21 39.98,-71.1 37.09,-13.9 161.1,-69.43 202.25,-198.65 37.09,-115.38 -1.17,-247.73 -56.22,-327.7 -33.6,-49.67 -73.59,-80.61 -108.35,-82.81 -47.52,-3.24 -97.35,48.57 -122.86,79.68 -22.59,27.18 -62.58,31.18 -89.81,8.7 -27.24,-22.31 -31.3,-62.53 -8.7,-89.7 71.86,-87.57 151.25,-131.03 230.06,-125.92 75.33,4.98 148.34,54 205.72,138.26 87.5,128.93 115.32,300.99 71.86,438.38 -45.79,142.56 -158.2,220.49 -229.48,257.18l54.47 301.97 1117.82 786.42c22.59,15.94 31.87,44.74 24.34,71.16 -8.12,26.43 -33.04,44.57 -60.85,44.74l-2272.17 15.94 -0.58 0z"/>
   <path class="fil0" d="M44224.29 16452.01l-935.29 673.95 1874.05 -13.1 -938.77 -660.85zm-1134.63 802.88c-27.82,0 -52.16,-17.74 -60.27,-43.98 -9.27,-26.37 0.58,-55.29 23.18,-71.51l1101.02 -793.85 -61.42 -337.21c-5.8,-30.24 11.01,-60.21 39.98,-71.1 37.1,-13.9 161.1,-69.53 202.25,-198.65 37.09,-115.38 -1.75,-247.79 -55.63,-327.76 -33.62,-49.6 -74.18,-80.55 -108.37,-82.75 -48.1,-3.24 -97.35,48.62 -123.44,79.74 -22.59,27.12 -62.58,31 -89.81,8.64 -27.24,-22.37 -31.29,-62.53 -8.7,-89.76 71.86,-87.51 151.25,-131.26 230.06,-125.86 75.33,4.98 147.77,54 205.14,138.2 88.08,128.89 116.48,300.99 72.44,438.44 -45.79,142.56 -158.2,220.44 -229.48,257.12l55.05 302.03 1117.26 786.42c22.59,15.94 32.45,44.74 24.34,71.16 -8.7,26.43 -33.04,44.57 -60.27,44.74l-2272.75 15.94 -0.58 0z"/>
   <path class="fil0" d="M44695.99 16452.01l-934.72 673.95 1873.49 -13.1 -938.77 -660.85zm-1134.63 802.88c-27.24,0 -51.58,-17.74 -60.27,-43.98 -8.7,-26.37 0.58,-55.29 23.17,-71.51l1101.03 -793.85 -61.42 -337.21c-5.21,-30.24 11.59,-60.21 39.99,-71.1 37.09,-13.9 161.09,-69.53 202.82,-198.65 36.51,-115.38 -1.74,-247.79 -56.21,-327.76 -33.6,-49.6 -74.17,-80.55 -108.37,-82.75 -47.52,-3.24 -97.35,48.62 -123.43,79.74 -22.03,27.12 -62.58,31 -89.82,8.64 -27.23,-22.37 -30.71,-62.53 -8.11,-89.76 71.86,-87.51 151.25,-131.26 229.48,-125.86 75.33,4.98 148.34,54 205.71,138.2 88.09,128.89 115.9,300.99 71.86,438.44 -45.19,142.56 -157.62,220.44 -229.48,257.12l55.06 302.03 1117.25 786.42c22.6,15.94 32.46,44.74 24.34,71.16 -8.11,26.43 -32.45,44.57 -60.27,44.74l-2272.75 15.94 -0.58 0z"/>
   <path class="fil0" d="M47634.58 31216.56c-35.35,0 -63.74,-28.57 -63.74,-63.81l0 -3046.25c0,-35.23 28.39,-63.8 63.74,-63.8 34.77,0 63.75,28.57 63.75,63.8l0 3046.25c0,35.24 -28.98,63.81 -63.75,63.81z"/>
   <polygon class="fil1" points="21331.32,5645.31 34952.83,5645.31 34952.83,5475.47 21331.32,5475.47 "/>
   <path class="fil2" d="M46536.45 13799l-5002.72 0c79.97,-374.57 179.65,-772.28 301.92,-1187.6 214.99,-725.52 459.53,-1363.31 702.91,-1910.86 1116.67,116.13 2232.76,232.25 3349.44,348.33 179.06,355.86 394.05,873.17 526.18,1534.54 92.72,465.85 120.52,881.98 122.27,1215.59z"/>
   <path class="fil2" d="M42706.04 10964.14c12.75,-0.11 -7.53,-16.86 -14.48,-28.22 -15.07,-26.94 -26.09,-53.71 -34.77,-84.55 -13.33,-47.92 -17.96,-98.63 -23.18,-148.53 -13.33,-135.02 -33.6,-281.4 5.22,-412.83 31.87,-108.31 89.82,-204.55 139.08,-302.73 63.16,-126.04 126.91,-251.61 192.38,-375.97 231.81,-438.79 446.2,-955.35 861.69,-1183.14 98.51,-53.95 196.44,-91.68 305.39,-94.92 122.27,-3.59 228.9,26.19 343.64,76.09 204.55,88.9 410.27,195.35 595.14,331.87 178.48,131.31 322.2,324.92 447.94,521.3 133.86,208.5 252.08,429.18 359.86,657.9 67.22,143.37 114.16,290.62 118.8,455.71 4.64,157.74 -20.87,313.51 -52.74,465.85 -30.71,143.95 -78.23,267.43 -152.4,387.1 -32.45,52.38 -66.06,104.41 -98.51,156.74 -33.03,52.62 -50.41,118.39 -85.76,168 -58.53,83.27 42.88,203.8 101.99,119.84 30.71,-44.21 48.1,-92.66 71.85,-142.2 30.72,-63.52 73.61,-120.83 110.69,-179.47 72.44,-115.21 130.38,-230 167.47,-367.51 77.08,-284.53 121.11,-620.34 36.51,-908.75 -82.86,-282.45 -240.48,-548.79 -386.51,-790.42 -139.66,-230.47 -293.81,-460.99 -489.1,-628.92 -197.02,-169.73 -436.94,-293.4 -665.25,-392.78 -229.48,-100.2 -480.97,-153.39 -713.93,-29.62 -226.59,120.37 -413.18,278.22 -566.74,510.53 -161.67,244.31 -294.95,518.41 -434.03,781.27 -81.12,154.09 -158.78,310.79 -238.17,466.14 -64.91,126.5 -125.17,257.82 -133.28,408.13 -8.11,152.47 4.64,334.94 39.99,482.6 25.5,102.8 85.76,252.02 191.23,250.98 92.14,-0.99 92.72,-170.43 0,-169.5z"/>
   <path class="fil2" d="M43555.56 11540.56c-45.79,-34.25 -70.12,-184.68 -86.93,-239.57 -44.62,-149.68 -75.33,-291.65 -89.23,-449.79 -26.09,-298.56 2.31,-597.51 64.89,-888.71 113.58,-533.19 348.86,-1018.63 722.62,-1355.72 194.71,-176.23 434.62,-281.52 675.68,-327.35 234.12,-44.62 497.2,-11.24 625.85,254.75 122.85,254.63 127.49,528.72 55.05,802.7 -74.75,281.34 -162.26,543.56 -289.75,797.95 -141.97,283.09 -288.58,563.33 -411.43,859.15 -115.9,280.82 -202.24,556.83 -186.6,873.93 5.22,108.41 148.93,109.17 143.72,0 -16.81,-335.29 92.72,-623.01 220.78,-914.49 128.64,-291.03 281.05,-565.24 415.49,-851.8 124.6,-264.59 228.32,-568.06 281.06,-864.82 50.99,-289.34 9.84,-607.47 -139.08,-850.34 -147.19,-241.41 -395.21,-314.77 -637.44,-289.28 -264.24,27.87 -526.76,130.96 -750.43,301.16 -428.25,326.14 -698.86,855.56 -842,1421.95 -88.06,350.82 -119.95,719.78 -88.64,1082.77 15.64,178.6 60.27,341.21 111.25,509.48 28.98,97.13 55.05,215.75 132.71,274.4 77.64,58.81 150.08,-87.8 72.44,-146.38z"/>
   <path class="fil1" d="M51040.81 33459.94l-95.62 15.01c-101.98,15.93 -197.6,-54.07 -213.25,-155.54l-2295.93 -14612.61c-15.65,-101.47 53.89,-197.61 155.3,-213.49l95.62 -15.06c101.99,-15.94 198.19,54.12 213.83,155.59l2295.36 14612.57c15.64,101.52 -54.47,197.6 -155.31,213.54z"/>
   <path class="fil1" d="M55621.67 33459.94l-95.62 15.01c-101.98,15.93 -197.6,-54.07 -213.83,-155.54l-2294.77 -14612.61c-16.23,-101.47 53.89,-197.61 155.3,-213.49l95.04 -15.06c101.99,-15.94 197.61,54.12 213.83,155.59l2295.36 14612.57c15.64,101.52 -53.89,197.6 -155.31,213.54z"/>
   <path class="fil12" d="M54533.39 17171.16l-1447.56 10416.35 -703.49 5058.18 -6213.86 -1.28 702.93 -5056.9 1447.56 -10417.63c210.93,-1514.02 1486.38,-2742.02 2849.34,-2741.61l1278.35 0c898.79,0.41 1610.98,534.75 1931.44,1332.99 165.73,412.31 226.58,894.33 155.3,1409.9z"/>
   <polygon class="fil3" points="53085.83,27587.51 52382.33,32645.69 46168.47,32644.41 46871.4,27587.51 "/>
   <path class="fil13" d="M46248.44 32068.58l111.27 -796.8 -111.27 796.74c0,0.06 0,0.06 0,0.06z"/>
   <path class="fil10" d="M52790.29 27587.51l-3859.98 0c250.92,-356.91 479.24,-731.72 676.84,-1130.34 -650.77,392.14 -1308.48,769.21 -1971.42,1130.34l-764.34 0 330.88 -2382.97c1236.63,-1141.66 2473.26,-2282.78 3709.89,-3424.37 -1127.68,359.68 -2255.95,719.43 -3383.63,1078.71l245.7 -1766.28c172.1,-157.8 345.96,-311.94 522.12,-463.19 1408.73,-1209.27 2926.42,-2231.55 4375.14,-3370.75 584.12,-458.9 1129.43,-1023.15 1706.6,-1497.17 102.56,254.98 164.57,536.6 180.79,836.32 9.86,184.91 1.75,376.67 -26.07,573.28l-553.41 3982.76c-1177.53,1299.92 -2373.58,2584.4 -3192.98,4140.62 917.91,-324.1 1835.24,-648.68 2753.16,-972.72l-410.28 2954.64c-112.42,104.76 -225.42,208.5 -338.99,311.12z"/>
   <g>
    <path class="fil3" d="M46248.44 32068.52l111.27 -796.74 140.81 -1016.53c878.5,-840.09 1740.2,-1686.78 2429.79,-2667.74l3859.98 0c-665.84,601.16 -1357.75,1165.81 -2066.46,1693.5 -1431.33,1064.05 -2934.53,1980.97 -4475.39,2787.57l0 -0.06zm561.53 -4040.94l61.42 -440.07 764.34 0c-274.1,149.45 -549.35,296.12 -825.76,440.07z"/>
   </g>
   <path class="fil0" d="M46240.91 32580.68l6085.21 0.99 2142.96 -15419.48c106.04,-762.66 -86.35,-1490.38 -526.76,-1996.69 -377.83,-433.92 -909.22,-672.96 -1497.4,-673.08l-1277.77 -0.17c-1330.51,0 -2579.88,1204.93 -2786.18,2686.44l-2140.05 15401.99zm6195.89 128.52l-6342.5 -1.04 2160.33 -15547.03c214.41,-1542.01 1521.16,-2796.43 2912.51,-2796.43l1277.77 0.23c625.27,0.12 1191.43,254.69 1593.59,716.89 465.32,534.05 668.15,1298.69 556.88,2097.92l-2158.6 15529.46z"/>
   <path class="fil1" d="M56489.17 33695.9l-8340.58 0c-94.46,0 -172.69,-77.88 -172.69,-172.91l0 -89.59c0,-95.09 78.23,-172.92 172.69,-172.92l8340.58 0c95.03,0 172.68,77.84 172.68,172.92l0 89.59c0,95.03 -77.65,172.91 -172.68,172.91z"/>
   <polygon class="fil3" points="26661.27,3427.37 31547.72,3427.37 31547.72,2117.39 26661.27,2117.39 "/>
   <path class="fil5" d="M23659.01 1702.18c-157.22,39 -296.3,133.05 -412.37,245.99 -148.34,144.24 -265.17,323.7 -320.81,523.05 -55.57,199.29 -47.4,418.56 38.36,606.84 24.05,52.86 55.75,104.96 104.84,135.9 77.12,48.56 177.09,34.13 265.35,11.36 241.53,-62.3 467.53,-173.21 686.45,-292.88 156,-85.25 313.16,-178.48 423.84,-317.56 110.68,-139.14 166.78,-334.88 97.41,-498.59 -69.71,-164.28 -240.2,-254.28 -387.85,-337.61 -148.59,-83.97 -327.99,-117.99 -495.23,-76.5z"/>
   <path class="fil5" d="M26084.92 1961.15c-141.57,89.12 -266.11,212.78 -332.4,366.58 -63.8,147.42 -70.58,314.95 -42.06,472.97 28.45,158.03 91.32,307.94 163.18,451.48 250.4,500.28 613.39,934.19 972.55,1362.96 25.51,30.19 53.15,62 91.39,71.86 61.2,15.76 119.84,-30.59 161.1,-78.29 108.35,-125.05 175.92,-279.54 238.46,-432.65 156.41,-381.64 293.68,-773.09 370.63,-1178.38 39.93,-209.02 62.02,-431.08 -14.01,-629.79 -78.7,-205.6 -256.37,-361.96 -455.25,-455.89 -182.37,-86.05 -416.13,-153.62 -619.7,-152.34 -178.14,1.05 -386.81,109.23 -533.88,201.49z"/>
   <path class="fil5" d="M33094.47 1189.85c415.72,106.8 812.33,327.29 1071.99,668.67 260.13,341.44 366.42,811.63 218.94,1214.61 -14.09,38.99 -33.21,80.08 -70.18,99.44 -44.22,23.23 -97.76,7.12 -144.52,-11.24 -578.04,-228.84 -1015.02,-756.93 -1616.88,-912.92 -153.85,-39.87 -324.75,-59 -439.49,-169.45 -136.87,-132.05 -146.26,-340.27 -257.58,-489.37 -101.64,-135.89 -238.93,-244.95 -53.6,-383.91 164.92,-123.72 395.33,-112.31 589.17,-107.32 236.72,6.02 473.03,32.62 702.17,91.5z"/>
   <path class="fil5" d="M29617.54 410.73c183.18,-151.6 406.74,-246.23 633.73,-317.45 173.03,-54.35 351.98,-96.66 533.01,-93.06 169.21,3.3 337.56,47.23 486.71,127.08 -89.23,155.02 -133.45,330.96 -189.14,500.98 -56.1,169.96 -127.55,341.44 -257.18,464.81 -108.35,103.5 -249.93,165.44 -392.72,210.82 -203.62,64.68 -416.59,99.85 -630.37,104.02 -112.25,2.2 -226.12,-4.4 -332.86,-39.64 -130.44,-43.05 -294.09,-141.16 -259.66,-296.05 35.7,-163.36 111.78,-320.17 211.68,-453.91 57.36,-76.62 123.26,-146.62 196.79,-207.58z"/>
   <path class="fil5" d="M26728.43 1201.55c-226.97,-6.6 -457.79,-46.76 -657.6,-155.01 -199.74,-108.25 -365.95,-291.25 -418.68,-512.39 -27.17,-115.03 -15.7,-253.35 76.96,-326.83 83.74,-66.34 202.36,-57.71 308.17,-45.83 171.71,19.3 344.74,38.77 509.66,91.04 164.45,52.21 322.2,139.89 430.56,274.45 86.28,107.49 138.15,240.19 228.26,344.56 48.44,56.33 107.96,103.85 148.34,166.14 28.92,44.57 67.98,141.8 26.36,190.25 -42.53,49.36 -123.26,4.46 -175.98,-4.93 -156.87,-27.87 -317.51,-16.87 -476.06,-21.45z"/>
   <path class="fil14" d="M23387.8 2722.95c279.6,-377.78 638.77,-565.99 1055.07,-754.2 450.14,-203.46 888.01,-409.81 1386.55,-448.99 482.42,-38.01 972.08,-84.44 1446.45,37.38 390.63,100.31 900.3,290.72 1170.62,608.98 26.77,31.35 71.4,-13.96 45.03,-45.09 -272.01,-320.16 -770.6,-507.63 -1162.51,-616.05 -513.42,-142.09 -1058.77,-90.11 -1582.46,-42.01 -477.79,43.87 -904.36,254.11 -1335.83,450.79 -430.39,196.15 -789.39,387.15 -1077.97,777.03 -24.46,32.98 30.83,64.85 55.05,32.17z"/>
   <path class="fil14" d="M26588.55 2569.33c-9.33,-306.73 42.53,-629.04 351.58,-772.7 227.79,-105.87 482.42,-134.55 731.08,-132.93 244.83,1.63 472.22,47.64 703.43,124.6 254.64,84.84 427.2,180.04 577.7,404.08 22.94,33.89 78.17,2.02 55.22,-32.11 -149.16,-221.83 -297.1,-320.22 -552.54,-412.01 -305.62,-109.58 -605.27,-159.13 -930.02,-144.59 -247.84,11.12 -530.05,55.28 -737.52,202.3 -238.85,169.55 -270.74,497.37 -262.68,763.36 1.28,40.97 65.08,41.09 63.74,0z"/>
   <path class="fil14" d="M26239.18 469.72c185.78,195.23 391.5,297.34 622.72,429.23 111.38,63.75 223.16,122.16 340.91,172.74 147.89,63.28 219.29,177.67 339.58,268.19 212.96,160.06 531.34,225.71 778.31,310.61 152.98,52.62 308.17,106.86 455.65,173.5 172.57,78.11 223.56,202.18 284.35,367.39 14.02,38.18 75.63,21.68 61.2,-16.98 -83.73,-228.2 -139.42,-332.28 -371.04,-429.8 -277.58,-116.82 -567.44,-196.97 -847.56,-305.92 -82.93,-32.28 -192.97,-71.74 -273.29,-118.68 -90.98,-53.36 -125.46,-131.89 -200.27,-196.85 -93.87,-81.59 -219.28,-112.31 -329.38,-165.91 -292,-141.91 -591.65,-296.34 -816.1,-532.6 -28.1,-29.78 -73.12,15.36 -45.07,45.09z"/>
   <path class="fil14" d="M30680.14 287.06c-203.17,257.53 -519.8,347.17 -826.69,414.33 -220.2,48.28 -555.15,84.44 -712.83,268.77 -141.57,165.5 -94.34,462.26 -76.96,660.5 9.8,113.34 34.01,213.72 65.88,322.14 19.99,67.05 47.17,142.9 46.76,213.66 0,79.1 -37.38,159.3 -44.62,239.1 -4.23,40.86 59.92,40.62 63.75,0 10.19,-107.96 54.41,-196.68 39.11,-306.61 -17.84,-127.03 -70.99,-247.26 -91.39,-374.23 -17.43,-108.14 -19.12,-207.58 -19.52,-315.99 -1.75,-238.06 5.9,-415.27 259.25,-514.82 453.11,-178.25 1013.76,-144.77 1342.33,-561.7 25.1,-31.93 -19.99,-77.37 -45.09,-45.15z"/>
   <path class="fil14" d="M33463.02 2081.74c-319.64,-275.66 -692.89,-393.01 -1088.57,-511.69 -135.6,-40.68 -286.5,-75.8 -415.32,-134.96 -109.22,-50.36 -171.29,-139.89 -270.74,-193.9 -137.27,-74.34 -332.39,-56.73 -479.06,-33.27 -438.61,70.29 -787.18,359.29 -1199.48,504.22 -292.47,102.86 -582.74,323.35 -674.13,639.11 -11.47,39.47 50.13,56.33 61.61,16.93 39.99,-139.31 181.09,-318.55 286.97,-412.19 134.26,-119.03 297.04,-155.66 456.06,-223.69 378.69,-161.97 729.4,-427.72 1148.08,-470.31 91.79,-9.39 201.02,-17.33 291.13,7.7 102.86,28.69 147.48,105.58 226.58,163.42 138.56,101.53 350.25,136.77 513.02,187.01 396.14,122.15 777.45,229.24 1098.76,506.7 31.06,26.66 76.09,-18.19 45.09,-45.09z"/>
   <polygon class="fil3" points="27938.59,2559.53 30178.62,2559.53 30178.62,2117.38 27938.59,2117.38 "/>
   <polygon class="fil7" points="36131.92,7269.9 45738.15,7269.9 45738.15,3486.91 36131.92,3486.91 "/>
   <path class="fil15" d="M40900.93 6474.09c-756.46,0 -1479.49,-482.77 -1793.63,-1244.4 291.59,-415.67 697.12,-644.04 1050.33,-644.04 93.93,0 184.04,16.05 267.37,48.97 80.32,31.64 242.98,113.98 382.63,339.99 158.78,-224.9 333.79,-307.3 424.77,-339.99 87.5,-31.23 180.21,-46.47 275.83,-46.47 384.78,0 817.08,245.47 1127.1,684.03 -273.52,651.74 -858.22,1112.03 -1530.42,1190.15 -67.8,7.88 -136.19,11.76 -203.99,11.76z"/>
   <path class="fil7" d="M38876.95 5220.95c239.28,159.48 577.17,254.22 861.13,271.43 391.9,23.81 744.29,-160.18 1131.56,-172.35 400.43,-12.52 793.33,66 1191.43,87.45 147.19,7.94 301.34,11.7 445.62,-20.4 203.99,-45.32 368.56,-126.97 581.81,-143.25 81.7,-6.21 82.28,-133.75 0,-127.55 -320.46,24.51 -599.78,171.18 -923.71,166.95 -378.98,-4.98 -754.49,-81.59 -1133.48,-90.8 -360.45,-8.76 -660.73,115.08 -1010.17,161.38 -350.64,46.36 -782.07,-44.45 -1080.05,-242.98 -68.44,-45.6 -132.17,64.73 -64.15,110.1z"/>
  </g>
 </g>
</svg>
