<?xml version="1.0" encoding="UTF-8"?>
<!DOCTYPE svg PUBLIC "-//W3C//DTD SVG 1.1//EN" "http://www.w3.org/Graphics/SVG/1.1/DTD/svg11.dtd">
<!-- Creator: CorelDRAW 2018 (64-Bit) -->
<svg xmlns="http://www.w3.org/2000/svg" xml:space="preserve" width="158.75mm" height="79.375mm" version="1.1" style="shape-rendering:geometricPrecision; text-rendering:geometricPrecision; image-rendering:optimizeQuality; fill-rule:evenodd; clip-rule:evenodd"
viewBox="0 0 15875 7937.5"
 xmlns:xlink="http://www.w3.org/1999/xlink">
 <defs>
  <style type="text/css">
   <![CDATA[
    .fil0 {fill:#727271}
   ]]>
  </style>
 </defs>
 <g id="Layer_x0020_1">
  <metadata id="CorelCorpID_0Corel-Layer"/>
  <path class="fil0" d="M7476.6 5864.04c-1310.21,-309.19 -114.89,275.8 -3439.83,938.68 -3324.94,662.88 -2547.81,-897.4 -2572.78,-1391.99 -31.68,-627.64 -1002.17,-1686.69 -105.84,-2487.08 896.33,-800.39 -208.54,-922.27 189.2,-1602.49 397.74,-680.22 1911.73,-977.98 3680.64,-185.59 1768.91,792.39 2227.34,159.71 3564.96,68.28 1337.62,-91.43 3704.16,-714.36 5318.12,-105.83 1613.96,608.53 -386.65,1057.55 -303.79,1666.05 70.18,515.31 523.13,278.41 569.93,773.11 46.78,494.71 -487.1,196.18 -721.04,690.89 -233.95,494.71 -311.41,665.83 296.9,1284.2 608.31,618.37 -151.67,1051.24 -900.33,824.5 -748.66,-226.74 -537.88,-830.95 -2526.61,-295.01 -1988.73,535.94 -1739.32,131.47 -3049.53,-177.72zm8398.4 2073.46l0 -7937.5 -15875 0 0 7937.5 15875 0z"/>
 </g>
</svg>
