<?xml version="1.0" encoding="UTF-8"?>
<!DOCTYPE svg PUBLIC "-//W3C//DTD SVG 1.1//EN" "http://www.w3.org/Graphics/SVG/1.1/DTD/svg11.dtd">
<!-- Creator: CorelDRAW 2018 (64-Bit) -->
<svg xmlns="http://www.w3.org/2000/svg" xml:space="preserve" width="158.75mm" height="79.375mm" version="1.1" style="shape-rendering:geometricPrecision; text-rendering:geometricPrecision; image-rendering:optimizeQuality; fill-rule:evenodd; clip-rule:evenodd"
viewBox="0 0 15875 7937.5"
 xmlns:xlink="http://www.w3.org/1999/xlink">
 <defs>
  <style type="text/css">
   <![CDATA[
    .fil0 {fill:#434242}
   ]]>
  </style>
 </defs>
 <g id="Layer_x0020_1">
  <metadata id="CorelCorpID_0Corel-Layer"/>
  <path class="fil0" d="M2030.58 5619.32c528.73,-610.06 -151.59,-355.54 -354.93,-843.59 -203.34,-488.05 -437.53,-543.83 -396.87,-1031.88 40.66,-488.05 547.56,-391.21 608.54,-899.58 72,-600.29 -841.99,-486.54 343.96,-1455.21 1185.95,-968.67 3783.54,608.55 4815.42,423.34 1031.88,-185.21 1905,-79.38 3076.51,-411.32 1171.51,-331.94 2847,-772.75 3192.7,-101.68 345.7,671.07 -565.98,1072.75 213.08,1862.37 779.06,789.62 -952.49,1613.97 -423.34,2169.58 566.54,594.85 740.83,1111.26 -661.46,449.8 -1402.29,-661.46 -2205.16,-507.96 -3343.95,-202.93 -1138.79,305.03 -2132.92,-484.98 -3557.22,123.55 -1424.3,608.53 -1682.07,384.85 -2332.78,608.54 -650.71,223.69 -1708.39,-80.93 -1179.66,-690.99zm13844.42 2318.18l0 -7937.5 -15875 0 0 7937.5 15875 0z"/>
 </g>
</svg>
