<?xml version="1.0" encoding="UTF-8"?>
<!DOCTYPE svg PUBLIC "-//W3C//DTD SVG 1.1//EN" "http://www.w3.org/Graphics/SVG/1.1/DTD/svg11.dtd">
<!-- Creator: CorelDRAW 2018 (64-Bit) -->
<svg xmlns="http://www.w3.org/2000/svg" xml:space="preserve" width="79.4442mm" height="72.9403mm" version="1.1" style="shape-rendering:geometricPrecision; text-rendering:geometricPrecision; image-rendering:optimizeQuality; fill-rule:evenodd; clip-rule:evenodd"
viewBox="0 0 3064.74 2813.84"
 xmlns:xlink="http://www.w3.org/1999/xlink">
 <defs>
  <style type="text/css">
   <![CDATA[
    .fil1 {fill:#BC4A27;fill-rule:nonzero}
    .fil0 {fill:#EF9202;fill-rule:nonzero}
   ]]>
  </style>
 </defs>
 <g id="Layer_x0020_1">
  <metadata id="CorelCorpID_0Corel-Layer"/>
  <path class="fil0" d="M2976.37 350.44c0,193.55 -639.31,350.46 -1427.92,350.46 -788.63,0 -1427.96,-156.91 -1427.96,-350.46 0,-193.55 639.33,-350.44 1427.96,-350.44 788.61,0 1427.92,156.89 1427.92,350.44z"/>
  <path class="fil0" d="M3064.74 2587.9c-365.49,111.14 -826.09,208.57 -1360.2,223.86 -691.02,19.78 -1274.06,-104.56 -1704.54,-240.11 40.17,-740.4 80.32,-1480.81 120.49,-2221.19 949.38,12.23 1898.73,24.47 2848.11,36.72 32.04,733.56 64.08,1467.14 96.15,2200.72z"/>
  <path class="fil1" d="M155.39 377.16c47.67,82.32 190.11,82.56 272.32,89.46 16.6,1.39 16.51,-24.51 0,-25.9 -69.74,-5.84 -209.1,-6.08 -249.96,-76.65 -8.35,-14.42 -30.75,-1.37 -22.36,13.08z"/>
  <path class="fil1" d="M674.49 502.74c160.86,0.61 321.65,18.35 482.63,9.55 164.27,-8.98 322.73,0.3 485.87,20.39 151.99,18.72 302.41,21.63 455.16,20.6 74.64,-0.5 141.79,2.11 214.65,-17.8 58.22,-15.9 121.99,-38.67 173.22,-70.64 14.1,-8.79 1.11,-31.21 -13.08,-22.36 -56.23,35.11 -131.64,60.67 -195.98,75.24 -76.37,17.29 -152.6,7.79 -230.16,10.59 -149.32,5.34 -299.24,-8.16 -447.28,-27.05 -151.73,-19.37 -299.78,-21.47 -452.27,-14.4 -157.76,7.33 -315.14,-9.44 -472.75,-10.04 -16.66,-0.05 -16.7,25.85 0,25.9z"/>
  <path class="fil1" d="M2695.26 419.24c35.42,-5.83 66.85,-19.26 99.73,-32.95 35.09,-14.58 71.4,-25.7 106.87,-39.28 15.42,-5.9 8.72,-30.95 -6.88,-24.97 -33.59,12.86 -68.09,23.15 -101.38,36.85 -34.84,14.32 -67.81,29.24 -105.22,35.36 -16.42,2.67 -9.46,27.64 6.88,24.99z"/>
  <path class="fil1" d="M325.79 740.74c-8.31,95.72 -23.15,190.83 -25.83,287.05 -0.44,16.66 25.44,16.66 25.9,0 2.67,-96.22 17.51,-191.33 25.83,-287.05 1.45,-16.62 -24.45,-16.51 -25.9,0z"/>
  <path class="fil1" d="M407.57 919.47c-0.02,51.41 -0.67,102.64 -8.14,153.63 -2.38,16.31 22.56,23.32 24.99,6.87 7.81,-53.34 9.04,-106.65 9.06,-160.49 0.02,-16.66 -25.9,-16.7 -25.9,0z"/>
 </g>
</svg>
