<?xml version="1.0" encoding="UTF-8"?>
<!DOCTYPE svg PUBLIC "-//W3C//DTD SVG 1.1//EN" "http://www.w3.org/Graphics/SVG/1.1/DTD/svg11.dtd">
<!-- Creator: CorelDRAW 2018 (64-Bit) -->
<svg xmlns="http://www.w3.org/2000/svg" xml:space="preserve" width="180.334mm" height="142.616mm" version="1.1" style="shape-rendering:geometricPrecision; text-rendering:geometricPrecision; image-rendering:optimizeQuality; fill-rule:evenodd; clip-rule:evenodd"
viewBox="0 0 5183.91 4099.65"
 xmlns:xlink="http://www.w3.org/1999/xlink">
 <defs>
  <style type="text/css">
   <![CDATA[
    .fil6 {fill:#1F0D09;fill-rule:nonzero}
    .fil14 {fill:#200E0A;fill-rule:nonzero}
    .fil10 {fill:#635653;fill-rule:nonzero}
    .fil8 {fill:#747CBA;fill-rule:nonzero}
    .fil2 {fill:#E77301;fill-rule:nonzero}
    .fil5 {fill:#EDA496;fill-rule:nonzero}
    .fil1 {fill:#EF9202;fill-rule:nonzero}
    .fil7 {fill:#F19080;fill-rule:nonzero}
    .fil13 {fill:#F2DCCF;fill-rule:nonzero}
    .fil9 {fill:#F2DED2;fill-rule:nonzero}
    .fil12 {fill:#F4B34E;fill-rule:nonzero}
    .fil11 {fill:#F5B2A6;fill-rule:nonzero}
    .fil0 {fill:#F6E7DD;fill-rule:nonzero}
    .fil3 {fill:#FBF4F1;fill-rule:nonzero}
    .fil4 {fill:white;fill-rule:nonzero}
   ]]>
  </style>
 </defs>
 <g id="Layer_x0020_1">
  <metadata id="CorelCorpID_0Corel-Layer"/>
  <g id="_2613367885072">
   <g>
    <path class="fil0" d="M4757.42 4031.04l-485.12 0 0.11 -1.48 210.27 0c4.21,0 8.45,-0.03 12.64,-0.08 2.39,-0.04 4.78,-0.07 7.15,-0.18l0 0c17.78,-0.34 35.34,-1.27 52.74,-2.7 7.22,-0.58 14.45,-1.27 21.6,-2.07l0 0c16.73,-1.79 33.22,-4.04 49.54,-6.78l0 0c7.69,-1.26 15.33,-2.67 22.94,-4.15 17.41,-3.36 34.51,-7.3 51.36,-11.67l0 0c2.85,-0.75 5.68,-1.49 8.53,-2.31 2.78,-0.75 5.55,-1.52 8.3,-2.32 18.48,11.02 31.92,22.3 39.95,33.73z"/>
    <path class="fil1" d="M5183.91 2286.83l0 1181.21c0,14.3 -0.65,28.44 -1.98,42.4 -5.21,56.09 -20.74,109.9 -45.07,160.21 -8.67,17.9 -18.43,35.41 -29.25,52.36 -9.41,14.79 -19.69,29.21 -30.65,43.22 -6.05,7.73 -12.36,15.38 -18.9,22.84 -17.32,19.92 -36.22,38.86 -56.6,56.77 -4.7,4.15 -9.45,8.22 -14.28,12.23 -11.36,9.41 -23.11,18.53 -35.28,27.25 -8.05,5.83 -16.23,11.45 -24.61,16.96 -15.97,10.52 -32.57,20.48 -49.69,29.82 -6.17,3.39 -12.44,6.68 -18.73,9.9 -10.08,5.13 -20.35,10.1 -30.79,14.83 -9.55,4.34 -19.25,8.53 -29.07,12.5 -15.93,6.47 -32.19,12.43 -48.79,17.9 -13.47,4.5 -27.17,8.59 -41.04,12.39 -2.85,0.82 -5.68,1.56 -8.53,2.31 -16.85,4.37 -33.96,8.31 -51.36,11.67 -7.6,1.48 -15.25,2.89 -22.94,4.15 -16.31,2.74 -32.81,4.99 -49.54,6.78 -7.15,0.8 -14.38,1.49 -21.6,2.07 -17.41,1.43 -34.96,2.35 -52.74,2.7 -2.37,0.11 -4.76,0.14 -7.15,0.18 -4.19,0.05 -8.43,0.08 -12.64,0.08l-4398.73 0c-1.2,0 -2.39,-0.03 -3.6,-0.08 -38.29,-1.27 -69.89,-23.22 -77.84,-52.27 -1.3,-4.66 -1.99,-9.44 -1.99,-14.42l0 -2170.65c0,-4.98 0.69,-9.77 1.99,-14.42 7.95,-29.05 39.55,-51 77.84,-52.27 1.2,-0.05 2.4,-0.08 3.6,-0.08l120.27 0 0 697.57 2638.56 0 0 -697.57 1639.91 0c4.21,0 8.45,0.03 12.64,0.08 2.39,0.04 4.78,0.07 7.15,0.18 17.78,0.33 35.34,1.26 52.74,2.71 7.22,0.57 14.45,1.27 21.6,2.04 16.73,1.8 33.22,4.04 49.54,6.79 7.69,1.27 15.33,2.67 22.94,4.13 17.41,3.36 34.51,7.3 51.36,11.68 2.85,0.75 5.68,1.51 8.53,2.29 13.87,3.8 27.57,7.91 41.04,12.4 16.6,5.48 32.86,11.44 48.79,17.91 9.83,3.98 19.52,8.14 29.07,12.5 10.44,4.74 20.71,9.69 30.79,14.82 6.29,3.24 12.57,6.51 18.73,9.9 17.12,9.36 33.72,19.31 49.69,29.82 8.38,5.49 16.6,11.14 24.61,16.98 12.17,8.72 23.92,17.82 35.28,27.24 4.83,4.01 9.58,8.09 14.28,12.23 20.38,17.92 39.31,36.86 56.6,56.74 6.54,7.47 12.85,15.11 18.9,22.84 10.96,14.01 21.24,28.42 30.65,43.22 10.83,16.95 20.59,34.45 29.25,52.36 24.33,50.31 39.86,104.11 45.07,160.21 1.33,13.96 1.98,28.11 1.98,42.39z"/>
    <path class="fil2" d="M4700.64 4001.94l0 -2248.95c2.85,0.75 5.68,1.51 8.53,2.29 13.87,3.8 27.57,7.91 41.04,12.4l0 2219.56c-13.47,4.5 -27.17,8.59 -41.04,12.39 -2.85,0.82 -5.68,1.56 -8.53,2.31z"/>
    <path class="fil2" d="M4828.07 3956.84l0 -2158.75c10.44,4.74 20.71,9.69 30.79,14.82 6.29,3.24 12.57,6.51 18.73,9.9l0 2109.3c-6.17,3.39 -12.44,6.68 -18.73,9.9 -10.08,5.13 -20.35,10.1 -30.79,14.83z"/>
    <path class="fil2" d="M4951.89 3885.32l0 -2015.72c12.17,8.72 23.92,17.82 35.28,27.24 4.83,4.01 9.58,8.09 14.28,12.23l0 1936.76c-4.7,4.15 -9.45,8.22 -14.28,12.23 -11.36,9.41 -23.11,18.53 -35.28,27.25z"/>
    <path class="fil2" d="M5058.06 3789.07l0 -1823.25c6.54,7.47 12.85,15.11 18.9,22.84 10.96,14.01 21.24,28.42 30.65,43.22l0 1691.14c-9.41,14.79 -19.69,29.21 -30.65,43.22 -6.05,7.73 -12.36,15.38 -18.9,22.84z"/>
    <path class="fil3" d="M63.08 4031.04l0 0c0.74,-1.05 1.48,-2.1 2.23,-3.16 0,0 0.01,0 0.01,0 -0.74,1.06 -1.49,2.11 -2.23,3.16l-0.01 0z"/>
    <path class="fil4" d="M272.51 4031.04l-209.43 0c0.75,-1.05 1.49,-2.1 2.24,-3.16 4.86,0.87 9.89,1.42 15.03,1.6l0 0c1.2,0.05 2.4,0.08 3.6,0.08l189.64 0c-0.36,0.49 -0.73,1 -1.07,1.48z"/>
    <polygon class="fil5" points="4272.3,4031.04 2021.72,4031.04 2022.56,4029.56 4272.41,4029.56 "/>
    <path class="fil0" d="M2021.72 4031.04l-1749.2 0c0.34,-0.48 0.71,-0.99 1.07,-1.48l1748.98 0 -0.85 1.48z"/>
    <path class="fil6" d="M592.19 2151.55c-42.84,64.27 -85.7,128.56 -128.54,192.85 -56.72,28.34 -113.44,56.71 -170.16,85.05 90.12,0 180.24,0 270.35,0 32.77,-59.86 65.54,-119.72 98.31,-179.59 9.46,3.77 18.91,7.55 28.37,11.34 -1.16,104.49 -1.89,171.74 -1.89,171.84 12.6,0.21 25.2,0.21 37.82,0.21 5.04,-90.75 10.08,-181.49 15.11,-272.24 -4.2,-17.17 -11.88,-38.19 -26.46,-41.59 -18.07,-4.23 -38.34,20.57 -57.42,45.37 -19.09,24.8 -37,49.62 -50.34,45.38 -7.51,-2.41 -15.23,-14.5 -15.13,-58.62z"/>
    <path class="fil6" d="M877.67 2156.28c-42.85,64.29 -85.7,128.56 -128.55,192.84 -56.73,28.34 -113.43,56.71 -170.15,85.07 90.11,0 180.23,0 270.34,0 32.76,-59.86 65.55,-119.73 98.31,-179.61 9.46,3.79 18.9,7.59 28.36,11.37 -1.15,104.48 -1.89,171.73 -1.89,171.82 12.59,0.21 25.2,0.21 37.81,0.21 5.04,-90.75 10.08,-181.49 15.12,-272.24 -4.2,-17.17 -11.89,-38.2 -26.48,-41.59 -18.06,-4.21 -38.34,20.57 -57.4,45.36 -19.11,24.82 -37.01,49.62 -50.34,45.38 -7.51,-2.38 -15.24,-14.5 -15.14,-58.6z"/>
    <path class="fil6" d="M1488.96 2211.82c1.33,71.06 2.67,142.14 4,213.2 6.86,0 13.7,0 20.54,0 7.24,-85.38 14.46,-170.76 21.69,-256.13l-46.23 42.93z"/>
    <path class="fil7" d="M1468.42 2290.44c-45.07,65.42 -47.05,102.68 -95.31,131.86 -18.15,10.98 -35.16,16.19 -46.23,18.83 -62.15,25.95 -119.63,22.81 -142.69,-6.84 -4.45,-5.72 -9,-14.21 -10.85,-26.82 41.6,-43.38 83.21,-86.77 124.86,-130.15 2.78,-2.91 5.45,-5.72 8.14,-8.54 60.49,-49.27 121,-98.55 181.5,-147.82 12.19,5.47 26.61,13.11 38.12,23.24 10.15,8.88 17.97,19.73 20.1,32.71 5.17,31.95 -29.9,44.24 -77.63,113.55z"/>
    <path class="fil7" d="M1525.95 2144.18c-0.68,9.91 -2.95,19.36 -4.04,23.99 -5.35,22.45 -21.48,65.33 -103.55,121.57 -21.96,15.03 -130.96,89.71 -151.13,67.66 -9.9,-10.83 3.77,-42.53 30.95,-80.09 2.78,-2.91 5.45,-5.72 8.14,-8.54 60.49,-49.27 121,-98.55 181.5,-147.82 12.19,5.47 26.61,13.11 38.12,23.24z"/>
    <path class="fil6" d="M1774.68 2218.94c1.33,71.06 2.67,142.12 4,213.2 6.84,0 13.69,0 20.54,0 7.23,-85.38 14.46,-170.74 21.69,-256.13l-46.23 42.93z"/>
    <path class="fil7" d="M1754.14 2297.56c-45.06,65.42 -47.05,102.68 -95.3,131.84 -18.15,10.99 -35.17,16.22 -46.23,18.84 -62.16,25.95 -119.66,22.81 -142.71,-6.84 -4.44,-5.73 -9,-14.2 -10.85,-26.82 41.62,-43.38 83.22,-86.77 124.86,-130.15 2.78,-2.92 5.45,-5.72 8.16,-8.53 60.47,-49.29 120.97,-98.56 181.5,-147.84 12.18,5.47 26.6,13.11 38.1,23.25 10.14,8.86 17.99,19.73 20.1,32.7 5.17,31.95 -29.89,44.24 -77.63,113.55z"/>
    <path class="fil7" d="M1811.66 2151.31c-0.69,9.9 -2.93,19.34 -4.04,23.97 -5.34,22.45 -21.47,65.34 -103.55,121.57 -21.95,15.04 -130.95,89.71 -151.12,67.66 -9.9,-10.81 3.76,-42.53 30.95,-80.09 2.78,-2.92 5.45,-5.72 8.16,-8.53 60.47,-49.29 120.97,-98.56 181.5,-147.84 12.18,5.47 26.6,13.11 38.1,23.25z"/>
    <path class="fil8" d="M2297.92 2323.51c-27.35,70.19 -51.39,129.34 -108.6,146.67 -35.02,10.62 -85.87,6.55 -108.81,-23.17 -48.9,-63.38 57.13,-206.87 79.46,-237.09 41.86,-56.67 134.59,-160.09 172.94,-139.39 42.93,23.16 -9.33,187.11 -34.99,252.98z"/>
    <path class="fil8" d="M2297.92 2323.51c-27.35,70.19 -51.39,129.34 -108.6,146.67 -35.02,10.62 -85.87,6.55 -108.81,-23.17 -48.9,-63.38 57.13,-206.87 79.46,-237.09 41.86,-56.67 134.59,-160.09 172.94,-139.39 42.93,23.16 -9.33,187.11 -34.99,252.98z"/>
    <path class="fil6" d="M2069.17 2354.96c13.12,-10.52 32.23,-22.02 56.74,-25.78 52.4,-8.02 108.28,22.69 144.08,77.2 9.73,-26.2 19.45,-52.38 29.19,-78.57 -4.08,-6.28 -49.08,-73.12 -122.51,-72.27 -12.1,0.15 -59.69,0.72 -88.26,38.32 -18.02,23.7 -19.34,50.08 -19.23,61.09z"/>
    <path class="fil8" d="M2482.4 2238.86c34.2,67.14 62.34,124.46 37.22,178.67 -15.39,33.22 -52.26,68.46 -89.73,65.79 -79.84,-5.67 -116.38,-180.31 -124.09,-217.07 -14.43,-68.98 -29.9,-207.01 11.08,-221.86 45.83,-16.63 133.43,131.5 165.52,194.47z"/>
    <path class="fil6" d="M2353.64 2430.55c0.87,-16.81 5,-38.72 18.5,-59.5 28.89,-44.46 89.01,-65.73 153.52,-56.17 -13.08,-24.69 -26.16,-49.39 -39.24,-74.06 -7.4,-1.13 -87.22,-12.04 -135.45,43.36 -7.93,9.11 -39.2,45 -30.14,91.37 5.68,29.2 24.5,47.75 32.81,55.01z"/>
    <polygon class="fil2" points="1069.83,4029.56 1119.38,4029.56 1119.38,2422.92 1069.83,2422.92 "/>
    <polygon class="fil2" points="1193.69,4029.56 1243.21,4029.56 1243.21,2422.92 1193.69,2422.92 "/>
    <polygon class="fil2" points="1321.08,4029.56 1370.63,4029.56 1370.63,2422.92 1321.08,2422.92 "/>
    <polygon class="fil2" points="1444.95,4029.56 1494.46,4029.56 1494.46,2422.92 1444.95,2422.92 "/>
    <polygon class="fil2" points="1568.81,4029.56 1618.34,4029.56 1618.34,2422.92 1568.81,2422.92 "/>
    <polygon class="fil2" points="1692.66,4029.56 1742.21,4029.56 1742.21,2422.92 1692.66,2422.92 "/>
    <polygon class="fil2" points="1820.07,4029.56 1869.59,4029.56 1869.59,2422.92 1820.07,2422.92 "/>
    <polygon class="fil2" points="1943.91,4029.56 1993.46,4029.56 1993.46,2422.92 1943.91,2422.92 "/>
    <polygon class="fil2" points="2067.77,4029.56 2117.31,4029.56 2117.31,2422.92 2067.77,2422.92 "/>
    <polygon class="fil2" points="2191.63,4029.56 2241.18,4029.56 2241.18,2422.92 2191.63,2422.92 "/>
    <path class="fil2" d="M129.91 4029.56l-45.96 0c-1.2,0 -2.39,-0.03 -3.6,-0.08l0 -2304.04c1.2,-0.05 2.4,-0.08 3.6,-0.08l45.96 0 0 2304.2z"/>
    <polygon class="fil2" points="204.21,4029.56 253.77,4029.56 253.77,2422.92 204.21,2422.92 "/>
    <polygon class="fil2" points="328.08,4029.56 377.63,4029.56 377.63,2422.92 328.08,2422.92 "/>
    <polygon class="fil2" points="501.5,4029.56 451.95,4029.56 451.95,2422.93 479.04,2422.93 501.5,2422.93 "/>
    <polygon class="fil2" points="579.34,4029.56 628.89,4029.56 628.89,2422.92 579.34,2422.92 "/>
    <polygon class="fil2" points="703.21,4029.56 752.76,4029.56 752.76,2422.92 703.21,2422.92 "/>
    <polygon class="fil2" points="827.07,4029.56 876.59,4029.56 876.59,2422.92 827.07,2422.92 "/>
    <polygon class="fil2" points="950.89,4029.56 1000.44,4029.56 1000.44,2422.92 950.89,2422.92 "/>
    <polygon class="fil2" points="2319.03,4029.56 2368.58,4029.56 2368.58,2422.92 2319.03,2422.92 "/>
    <polygon class="fil2" points="2442.88,4029.56 2492.44,4029.56 2492.44,2422.92 2442.88,2422.92 "/>
    <polygon class="fil2" points="2566.76,4029.56 2616.28,4029.56 2616.28,2422.92 2566.76,2422.92 "/>
    <polygon class="fil2" points="2690.64,4029.56 2740.14,4029.56 2740.14,2422.92 2690.64,2422.92 "/>
    <polygon class="fil2" points="2867.53,4029.56 2818.01,4029.56 2818.01,2422.93 2842.77,2422.93 2842.77,1725.36 2867.53,1725.36 "/>
    <polygon class="fil2" points="2941.89,4029.56 2991.39,4029.56 2991.39,1725.35 2941.89,1725.35 "/>
    <polygon class="fil2" points="3079.89,4029.56 3129.4,4029.56 3129.4,1725.35 3079.89,1725.35 "/>
    <polygon class="fil2" points="3203.75,4029.56 3253.27,4029.56 3253.27,1725.35 3203.75,1725.35 "/>
    <polygon class="fil2" points="3331.14,4029.56 3380.66,4029.56 3380.66,1725.35 3331.14,1725.35 "/>
    <polygon class="fil2" points="3454.98,4029.56 3504.53,4029.56 3504.53,1725.35 3454.98,1725.35 "/>
    <polygon class="fil2" points="3578.84,4029.56 3628.39,4029.56 3628.39,1725.35 3578.84,1725.35 "/>
    <polygon class="fil2" points="3702.7,4029.56 3752.26,4029.56 3752.26,1725.35 3702.7,1725.35 "/>
    <polygon class="fil2" points="3830.09,4029.56 3879.65,4029.56 3879.65,1725.35 3830.09,1725.35 "/>
    <polygon class="fil2" points="3953.96,4029.56 4003.51,4029.56 4003.51,1725.35 3953.96,1725.35 "/>
    <polygon class="fil2" points="4077.83,4029.56 4127.38,4029.56 4127.38,1725.35 4077.83,1725.35 "/>
    <polygon class="fil2" points="4201.69,4029.56 4251.22,4029.56 4251.22,1725.35 4201.69,1725.35 "/>
    <polygon class="fil2" points="4329.08,4029.56 4378.63,4029.56 4378.63,1725.35 4329.08,1725.35 "/>
    <path class="fil2" d="M4482.68 4029.56l-29.72 0 0 -2304.2 29.72 0c4.21,0 8.45,0.03 12.64,0.08 2.39,0.04 4.78,0.07 7.15,0.18l0 2303.67c-2.37,0.11 -4.76,0.14 -7.15,0.18 -4.19,0.05 -8.43,0.08 -12.64,0.08z"/>
    <path class="fil2" d="M4576.81 4024.53l0 -2294.15c16.73,1.8 33.22,4.04 49.54,6.79l0 2280.59c-16.31,2.74 -32.81,4.99 -49.54,6.78z"/>
    <polygon class="fil1" points="195.21,2422.93 204.22,2422.93 204.22,1725.36 195.21,1725.36 "/>
    <path class="fil9" d="M1875.71 2422.93l-75.69 0c5.68,-67 11.35,-133.98 17.02,-200.98 11.32,-13.29 17.05,-23.64 14.74,-37.94 -2.12,-12.97 -9.97,-23.84 -20.1,-32.7 -11.5,-10.15 -25.92,-17.78 -38.1,-23.25 -60.53,49.27 -121.03,98.55 -181.5,147.84 -2.71,2.81 -5.38,5.61 -8.16,8.53 -21.39,22.29 -42.78,44.57 -64.15,66.86 3.84,-45.48 7.7,-90.97 11.56,-136.46 11.32,-13.29 17.05,-23.64 14.74,-37.94 -1.16,-7.09 -4.02,-13.54 -8.03,-19.38 125.81,-149.05 256.05,-295.62 399.02,-425.92l367.3 0c-5.41,10 -10.95,19.94 -16.47,29.84 -126.44,226.25 -260.24,451.42 -412.17,661.51zm-97.19 0l-109.87 0c38.96,-28.25 43.7,-64.69 85.5,-125.37 7.52,-10.89 14.71,-20.39 21.48,-28.77 0.97,51.39 1.92,102.75 2.89,154.14zm-317.72 0l-88.73 0c0.36,-0.22 0.7,-0.41 1.05,-0.64 48.26,-29.17 50.24,-66.43 95.31,-131.86 7.51,-10.89 14.7,-20.39 21.47,-28.77 0.75,39.47 1.49,78.96 2.23,118.43 -11.02,11.49 -22.05,22.99 -33.07,34.48 0.44,3.02 1.04,5.79 1.74,8.35zm-283.24 0l-164.82 0c4.77,-85.73 9.53,-171.46 14.3,-257.2 -4.2,-17.17 -11.89,-38.2 -26.48,-41.59 -1.35,-0.32 -2.74,-0.47 -4.12,-0.47 -17.01,0 -35.66,22.92 -53.28,45.83 -17.64,22.94 -34.29,45.85 -47.23,45.85 -1.07,0 -2.1,-0.15 -3.11,-0.47 -7.42,-2.35 -15.04,-14.2 -15.14,-56.97 98.88,-155.69 207.66,-305.74 340.69,-426.32l218.42 0c-2.86,145.87 -5.63,291.77 -8.28,437.67 -40.73,33.17 -81.46,66.33 -122.16,99.5 -2.7,2.82 -5.36,5.63 -8.14,8.54 -41.64,43.39 -83.26,86.77 -124.86,130.15 0.88,6.06 2.39,11.16 4.22,15.47zm-203.29 0l-118.77 0c30.72,-56.12 61.42,-112.24 92.15,-168.35 9.46,3.79 18.9,7.59 28.36,11.37 -0.83,75.6 -1.45,131.71 -1.73,156.99zm-372.77 0l-34.06 0c31.58,-57.69 63.15,-115.37 94.72,-173.07 9.46,3.77 18.91,7.55 28.37,11.34 -0.52,48.2 -0.98,88.46 -1.3,117.86 -29.25,14.63 -58.48,29.24 -87.73,43.87zm129.1 -64.55c3.67,-65.78 7.32,-131.58 10.96,-197.37 -4.2,-17.17 -11.88,-38.19 -26.46,-41.59 -1.35,-0.32 -2.74,-0.49 -4.12,-0.49 -17.01,0 -35.66,22.94 -53.3,45.86 -17.64,22.93 -34.28,45.85 -47.22,45.85 -1.06,0 -2.11,-0.15 -3.12,-0.47 -7.51,-2.41 -15.23,-14.5 -15.13,-58.62 -11.39,17.12 -22.8,34.23 -34.21,51.33 51.53,-141.63 104.29,-282.78 158.3,-423.45 6.14,-15.97 12.26,-31.9 18.39,-47.85l234.92 0c-12.18,42.18 -24.72,83.21 -36.33,122.29 -45.55,153.56 -100.75,304.04 -156.7,454.06 -9.14,13.73 -18.29,27.46 -27.44,41.19 -6.18,3.08 -12.36,6.18 -18.54,9.26z"/>
    <path class="fil10" d="M567.42 2422.93l-88.38 0c25.98,-73.47 52.3,-146.83 78.94,-220.05 11.41,-17.1 22.82,-34.22 34.21,-51.33 -0.09,44.12 7.63,56.21 15.13,58.62 1.01,0.32 2.06,0.47 3.12,0.47 12.94,0 29.58,-22.92 47.22,-45.85 17.64,-22.92 36.29,-45.86 53.3,-45.86 1.38,0 2.77,0.17 4.12,0.49 14.59,3.4 22.26,24.41 26.46,41.59 -3.65,65.79 -7.3,131.59 -10.96,197.37 -13.78,6.9 -27.57,13.8 -41.37,20.68 0.32,-29.4 0.78,-69.67 1.3,-117.86 -9.45,-3.79 -18.91,-7.56 -28.37,-11.34 -31.57,57.7 -63.15,115.38 -94.72,173.07z"/>
    <path class="fil10" d="M1012.73 2422.93l-38.48 0c0.28,-25.27 0.9,-81.39 1.73,-156.99 -9.45,-3.77 -18.9,-7.58 -28.36,-11.37 -30.72,56.12 -61.43,112.24 -92.15,168.35l-254 0c29.25,-14.63 58.48,-29.24 87.73,-43.87 13.8,-6.88 27.58,-13.78 41.37,-20.68 6.18,-3.08 12.36,-6.18 18.54,-9.26 9.15,-13.73 18.31,-27.46 27.44,-41.19 -4.96,13.34 -9.95,26.7 -14.93,40.04 37.69,-63.22 76.07,-127.11 116.04,-190.06 0.1,42.78 7.72,54.63 15.14,56.97 1.01,0.32 2.05,0.47 3.11,0.47 12.94,0 29.59,-22.91 47.23,-45.85 17.63,-22.91 36.28,-45.83 53.28,-45.83 1.38,0 2.77,0.15 4.12,0.47 14.59,3.39 22.27,24.42 26.48,41.59 -4.77,85.73 -9.53,171.46 -14.3,257.2z"/>
    <path class="fil10" d="M1492.12 2380.1c-0.73,-39.47 -1.48,-78.96 -2.23,-118.43 17.05,-21.07 31.41,-35.09 41.42,-46.84 -3.86,45.48 -7.72,90.97 -11.56,136.46 -9.21,9.61 -18.43,19.21 -27.64,28.81z"/>
    <path class="fil11" d="M1372.06 2422.93l-194.51 0c-1.83,-4.31 -3.33,-9.41 -4.22,-15.47 41.6,-43.38 83.21,-86.77 124.86,-130.15 2.78,-2.91 5.45,-5.72 8.14,-8.54 40.7,-33.17 81.43,-66.33 122.16,-99.5l0 0c-40.73,33.17 -81.46,66.33 -122.16,99.5 -2.7,2.82 -5.36,5.63 -8.14,8.54 -27.18,37.57 -40.85,69.27 -30.95,80.09 2.57,2.79 6.55,4.04 11.63,4.04 34.84,0 120.34,-58.58 139.5,-71.7 2.77,-1.89 5.45,-3.77 8.07,-5.64 -0.06,2.41 -0.08,4.82 -0.14,7.23 5.11,-6.18 10.26,-12.35 15.37,-18.51 50.28,-38.89 68.64,-70.3 76.34,-91.52 6.65,-7.93 13.31,-15.86 20,-23.78 4.01,5.85 6.87,12.29 8.03,19.38 2.31,14.3 -3.42,24.65 -14.74,37.94 -10.01,11.75 -24.38,25.77 -41.42,46.84 -6.77,8.38 -13.96,17.87 -21.47,28.77 -45.07,65.42 -47.05,102.68 -95.31,131.86 -0.34,0.22 -0.69,0.41 -1.05,0.64z"/>
    <path class="fil11" d="M1278.86 2361.43c-5.07,0 -9.06,-1.24 -11.63,-4.04 -9.9,-10.83 3.77,-42.53 30.95,-80.09 2.78,-2.91 5.45,-5.72 8.14,-8.54 40.7,-33.17 81.43,-66.33 122.16,-99.5 -0.69,38.3 -1.38,76.55 -2.06,114.83 -2.63,1.87 -5.31,3.75 -8.07,5.64 -19.16,13.12 -104.66,71.7 -139.5,71.7zm162.81 -88.62c25.33,-30.53 50.74,-61.05 76.34,-91.52 -7.7,21.22 -26.06,52.63 -76.34,91.52z"/>
    <path class="fil10" d="M1800.01 2422.93l-21.5 0c-0.97,-51.39 -1.92,-102.75 -2.89,-154.14 17.02,-21.06 31.4,-35.09 41.41,-46.84 -5.67,67 -11.33,133.98 -17.02,200.98z"/>
    <path class="fil11" d="M1668.64 2422.93l-207.85 0c-0.7,-2.56 -1.3,-5.34 -1.74,-8.35 11.02,-11.49 22.05,-22.99 33.07,-34.48 9.21,-9.61 18.43,-19.2 27.64,-28.81 21.37,-22.29 42.76,-44.57 64.15,-66.86 2.78,-2.92 5.45,-5.72 8.16,-8.53 60.47,-49.29 120.97,-98.56 181.5,-147.84 12.18,5.47 26.6,13.11 38.1,23.25 10.14,8.86 17.99,19.73 20.1,32.7 2.31,14.3 -3.42,24.65 -14.74,37.94 -10.01,11.75 -24.39,25.79 -41.41,46.84 -6.78,8.38 -13.96,17.87 -21.48,28.77 -41.79,60.68 -46.54,97.12 -85.5,125.37zm104.92 -294.87c-60.53,49.27 -121.03,98.55 -181.5,147.84 -2.71,2.81 -5.38,5.61 -8.16,8.53 -27.19,37.57 -40.85,69.28 -30.95,80.09 2.56,2.81 6.55,4.04 11.62,4.04 34.83,0 120.34,-58.58 139.5,-71.7 82.08,-56.23 98.22,-99.11 103.55,-121.57 1.11,-4.63 3.35,-14.07 4.04,-23.97 -11.5,-10.15 -25.92,-17.78 -38.1,-23.25z"/>
    <path class="fil11" d="M1564.57 2368.55c-5.07,0 -9.07,-1.23 -11.62,-4.04 -9.9,-10.81 3.76,-42.53 30.95,-80.09 2.78,-2.92 5.45,-5.72 8.16,-8.53 60.47,-49.29 120.97,-98.56 181.5,-147.84 12.18,5.47 26.6,13.11 38.1,23.25 -0.69,9.9 -2.93,19.34 -4.04,23.97 -5.34,22.45 -21.47,65.34 -103.55,121.57 -19.16,13.12 -104.67,71.7 -139.5,71.7z"/>
    <polygon class="fil12" points="1875.71,2422.93 479.04,2422.93 1875.71,2422.93 "/>
    <polygon class="fil8" points="-0,1770.97 4700.64,1770.97 4700.64,1692.21 -0,1692.21 "/>
    <polygon class="fil8" points="32.29,4099.65 4673.29,4099.65 4673.29,4015.21 32.29,4015.21 "/>
    <path class="fil4" d="M4458.02 1692.21l-927.4 0c-39.75,0 -70.11,-35.48 -64,-74.75l99.68 -639.83c4.91,-31.53 32.07,-54.8 64,-54.8l927.38 0c39.76,0 70.12,35.48 64.01,74.74l-99.68 639.84c-4.92,31.54 -32.08,54.8 -64,54.8z"/>
    <path class="fil4" d="M3899.15 1692.21l-960.96 0c-9.79,0 -17.79,-8.02 -17.79,-17.81l0 -3.8c0,-9.77 8.01,-17.78 17.79,-17.78l960.96 0c9.77,0 17.79,8.01 17.79,17.78l0 3.8c0,9.79 -8.02,17.81 -17.79,17.81z"/>
    <path class="fil13" d="M4157.62 1319.07c-10.44,43.22 -39.28,73.32 -64.4,67.23 -25.12,-6.09 -37.02,-46.01 -26.57,-89.23 10.44,-43.19 39.28,-73.29 64.4,-67.22 25.12,6.08 37.02,46.03 26.57,89.22z"/>
    <path class="fil6" d="M1644.68 1688.06l1154.24 0c-32.38,-313.42 -64.74,-626.85 -97.14,-940.27 -328.08,0 -656.16,0 -984.24,0 -24.29,313.42 -48.57,626.85 -72.86,940.27z"/>
    <path class="fil14" d="M2405.28 772.46c-4.02,-17.52 -12.1,-34 -16.76,-51.47 -5.3,-19.84 -9.28,-40.01 -15.06,-59.73 -11.45,-39.06 -21.54,-79.98 -37.37,-117.49 -9.04,-21.42 -22.7,-50.17 -40.6,-65.43 -25.68,-21.89 -56.05,-27.68 -88.06,-18.57 -34.01,9.69 -64.1,28.32 -93.19,47.84 -25.19,16.91 -49.66,32.44 -66.62,58.46 -39.2,60.02 -26.38,143.85 -33.25,211.5 -0.48,4.8 7.03,4.77 7.49,0 6.36,-62.59 -4.17,-135.88 24.46,-194.14 15.04,-30.64 40.72,-48.78 68.31,-67.1 27.69,-18.4 55.09,-36.01 86.84,-46.8 43.56,-14.78 84.47,-1.26 107.41,39.55 16,28.41 28.4,56.2 37.32,87.78 8.25,29.23 18.33,57.98 25.69,87.45 7.56,30.29 19.23,59.99 26.16,90.14 1.08,4.69 8.31,2.7 7.23,-2z"/>
    <path class="fil14" d="M2376.41 771.09c-5.86,-34.16 -4.4,-67.5 -13.32,-101.59 -8.06,-30.82 -17.59,-61.98 -30.11,-91.29 -18.1,-42.35 -46.38,-113.73 -103.44,-99.14 -25.44,6.49 -50.13,15.55 -68.34,35.03 -19.27,20.63 -32.93,44.34 -46.86,68.86 -16.44,28.98 -29.65,60.34 -43.47,90.63 -12.79,28.05 -28,54.07 -37.12,83.75 -1.42,4.62 5.81,6.59 7.23,1.99 15.21,-49.48 43.44,-94.86 65.02,-141.71 24.25,-52.67 51.93,-107.96 110.34,-126.93 15.54,-5.03 31.27,-9.51 46.98,-3.11 15.94,6.47 24.4,23.56 33,37.48 16.44,26.6 30.11,54.11 40.32,83.71 9.54,27.68 18.61,55.98 24.41,84.68 5.38,26.52 3.6,53.27 8.12,79.62 0.8,4.74 8.03,2.74 7.23,-1.99z"/>
    <path class="fil7" d="M488.6 1688.06l1529.46 0c-42.9,-429.29 -85.82,-858.58 -128.72,-1287.88 -434.73,0 -869.47,0 -1304.21,0 -32.18,429.31 -64.37,858.59 -96.54,1287.88z"/>
    <path class="fil14" d="M1458.2 432.09c-7.77,-46.78 -5.82,-92.45 -17.63,-139.14 -10.69,-42.21 -23.34,-84.89 -39.93,-125.05 -23.96,-58 -61.44,-155.77 -137.05,-135.79 -33.71,8.9 -66.42,21.32 -90.56,48 -25.54,28.25 -43.66,60.72 -62.09,94.32 -21.79,39.68 -39.29,82.62 -57.58,124.13 -16.95,38.42 -37.11,74.06 -49.2,114.71 -1.88,6.33 7.7,9.04 9.58,2.74 20.17,-67.77 57.58,-129.93 86.16,-194.11 32.14,-72.14 68.82,-147.86 146.23,-173.84 20.59,-6.9 41.41,-13.04 62.23,-4.29 21.13,8.89 32.32,32.28 43.73,51.36 21.79,36.43 39.9,74.12 53.42,114.66 12.64,37.91 24.65,76.66 32.37,116 7.12,36.31 4.74,72.96 10.73,109.04 1.08,6.51 10.66,3.75 9.6,-2.73z"/>
   </g>
   <path class="fil14" d="M1496.44 433.97c-5.34,-23.97 -16.01,-46.58 -22.19,-70.5 -7.01,-27.18 -12.29,-54.8 -19.95,-81.82 -15.18,-53.49 -28.54,-109.54 -49.52,-160.93 -11.97,-29.34 -30.07,-68.71 -53.81,-89.63 -34.01,-29.97 -74.26,-37.9 -116.67,-25.41 -45.06,13.27 -84.92,38.79 -123.46,65.52 -33.4,23.17 -65.83,44.45 -88.32,80.08 -51.9,82.21 -34.92,197.04 -44.03,289.7 -0.65,6.57 9.29,6.53 9.93,0 8.43,-85.75 -5.53,-186.11 32.41,-265.92 19.94,-41.96 53.95,-66.8 90.5,-91.9 36.69,-25.19 73.01,-49.33 115.1,-64.1 57.71,-20.24 111.92,-1.71 142.32,54.17 21.18,38.92 37.62,76.98 49.44,120.24 10.94,40.03 24.29,79.43 34.04,119.77 10.01,41.49 25.47,82.16 34.65,123.46 1.44,6.44 11.02,3.71 9.58,-2.74z"/>
  </g>
 </g>
</svg>
